<svg width="512" height="512" viewBox="0 0 512 512" fill="none" xmlns="http://www.w3.org/2000/svg">
<path d="M490 242.301V84.1699C490 78.6479 485.523 74.1699 480 74.1699C474.477 74.1699 470 78.6479 470 84.1699V97.2319H42V84.1699C42 78.6479 37.523 74.1699 32 74.1699C26.477 74.1699 22 78.6479 22 84.1699V242.301C9.671 243.494 0 253.914 0 266.551V397.957C0 403.479 4.477 407.957 10 407.957H22V427.83C22 433.352 26.477 437.83 32 437.83C37.523 437.83 42 433.352 42 427.83V407.957H470V427.83C470 433.352 474.477 437.83 480 437.83C485.523 437.83 490 433.352 490 427.83V407.957H502C507.523 407.957 512 403.479 512 397.957V266.551C512 253.914 502.329 243.494 490 242.301ZM470 242.187H450.298V194.235C450.298 180.438 439.073 169.214 425.277 169.214H293.574C279.778 169.214 268.553 180.439 268.553 194.235V242.187H243.447V194.235C243.447 180.438 232.222 169.214 218.426 169.214H86.724C72.927 169.214 61.703 180.439 61.703 194.235V242.187H42V117.231H470V242.187ZM430.298 242.187H288.553V194.235C288.553 191.466 290.805 189.214 293.574 189.214H425.276C428.045 189.214 430.297 191.467 430.297 194.235V242.187H430.298ZM223.447 242.187H81.702V194.235C81.702 191.466 83.954 189.214 86.723 189.214H218.425C221.194 189.214 223.446 191.467 223.446 194.235V242.187H223.447ZM20 266.551C20 264.145 21.958 262.187 24.364 262.187H487.635C490.041 262.187 491.999 264.145 491.999 266.551V302.17H20V266.551ZM63.404 387.957V365.063H448.595V387.957H63.404ZM492 387.957H468.596V355.063C468.596 349.541 464.119 345.063 458.596 345.063H53.404C47.881 345.063 43.404 349.541 43.404 355.063V387.957H20V322.17H492V387.957Z" fill="#8C9E8A"/>
</svg>
