<svg width="512" height="512" viewBox="0 0 512 512" fill="none" xmlns="http://www.w3.org/2000/svg">
<g clip-path="url(#clip0_1_12)">
<path d="M502 164.009H481.417C483.75 159.266 485.062 153.934 485.062 148.301V128.915C485.062 123.393 480.584 118.915 475.062 118.915H370.332C364.81 118.915 360.332 123.393 360.332 128.915V148.301C360.332 153.934 361.644 159.266 363.977 164.009H313.833L330.993 99.887C331.797 96.884 331.158 93.679 329.265 91.213C327.372 88.747 324.441 87.302 321.332 87.302H315.172C329.664 67.339 325.328 37.769 325.12 36.413C324.456 32.102 321.075 28.72 316.766 28.053C315.294 27.825 280.509 22.704 260.972 42.285C259.096 44.165 257.448 46.186 256.001 48.304C254.554 46.186 252.906 44.166 251.031 42.286C231.494 22.702 196.708 27.826 195.237 28.053C190.927 28.72 187.547 32.103 186.883 36.413C186.675 37.768 182.339 67.338 196.831 87.302H190.671C187.563 87.302 184.631 88.747 182.738 91.213C180.845 93.679 180.207 96.884 181.01 99.887L198.17 164.009H148.026C150.359 159.266 151.671 153.934 151.671 148.301V128.915C151.671 123.393 147.193 118.915 141.671 118.915H36.938C31.416 118.915 26.938 123.393 26.938 128.915V148.301C26.938 153.934 28.25 159.266 30.583 164.009H10C4.478 164.009 0 168.487 0 174.009C0 179.531 4.478 184.009 10 184.009H13.107V218.272C13.107 241.118 29.089 260.302 50.46 265.23L41.39 474.283C41.272 477.008 42.271 479.663 44.158 481.633C46.045 483.603 48.653 484.717 51.381 484.717H77.552C82.415 484.717 86.573 481.218 87.405 476.427L111.78 335.985L224.994 266.458H287.01L400.875 336.386L425.179 476.427C426.01 481.218 430.168 484.717 435.032 484.717H461.204C463.932 484.717 466.54 483.603 468.427 481.633C470.314 479.663 471.313 477.008 471.195 474.283L462.119 265.093C483.2 259.955 498.895 240.912 498.895 218.272V184.009H502C507.522 184.009 512 179.531 512 174.009C512 168.487 507.522 164.009 502 164.009ZM380.331 148.301V138.915H465.061V148.301C465.061 156.962 458.014 164.009 449.353 164.009H396.039C387.378 164.009 380.331 156.962 380.331 148.301ZM275.129 56.411C282.754 48.769 296.424 47.137 305.875 47.259C306.016 56.028 304.823 70.091 296.769 78.162C289.851 85.095 277.981 87.087 268.76 87.302H266.023C265.883 78.531 267.079 64.479 275.129 56.411ZM215.231 78.162C207.591 70.507 205.97 56.79 206.088 47.294C214.822 47.15 228.832 48.355 236.87 56.412C244.061 63.617 245.92 76.193 246.014 85.565C246.01 86.079 246.01 86.581 246.014 87.072C246.013 87.149 246.012 87.226 246.011 87.302H243.378C234.153 87.099 222.179 85.125 215.231 78.162ZM203.697 107.302H308.302L293.127 164.009H218.871L203.697 107.302ZM46.938 148.301V138.915H131.668V148.301C131.668 156.962 124.621 164.009 115.96 164.009H62.646C53.985 164.009 46.938 156.962 46.938 148.301ZM69.138 464.716H61.825L70.426 266.457H103.547L69.138 464.716ZM116.338 309.713L123.845 266.457H186.773L116.338 309.713ZM325.226 266.457H388.737L396.314 310.114L325.226 266.457ZM443.444 464.716L409.036 266.457H442.158L450.759 464.716H443.444ZM478.893 218.271C478.893 233.813 466.249 246.457 450.707 246.457H61.293C45.751 246.457 33.107 233.813 33.107 218.271V184.008H478.892V218.271H478.893Z" fill="#8C9E8A"/>
</g>
<defs>
<clipPath id="clip0_1_12">
<rect width="512" height="512" fill="white"/>
</clipPath>
</defs>
</svg>
