<svg width="512" height="512" viewBox="0 0 512 512" fill="none" xmlns="http://www.w3.org/2000/svg">
<path d="M308.464 44H120.608C115.085 44 110.608 48.477 110.608 54V458C110.608 463.523 115.085 468 120.608 468H308.464C313.987 468 318.464 463.523 318.464 458V54C318.464 48.477 313.987 44 308.464 44ZM130.608 64H204.536V448H130.608V64ZM298.464 448H224.536V64H298.464V448Z" fill="#8C9E8A"/>
<path d="M435.392 0H76.6084C71.0854 0 66.6084 4.477 66.6084 10V502C66.6084 507.523 71.0854 512 76.6084 512H435.392C440.915 512 445.392 507.523 445.392 502V10C445.392 4.477 440.915 0 435.392 0ZM362.464 219.553H425.392V307.468H362.464V219.553ZM362.464 199.553V111.638H425.392V199.553H362.464ZM362.464 327.468H425.392V415.383H362.464V327.468ZM425.392 91.638H362.464V20H425.392V91.638ZM86.6084 20H342.464V492H86.6084V20ZM362.464 492V435.383H425.392V492H362.464Z" fill="#8C9E8A"/>
<path d="M258.319 291.688C263.842 291.688 268.319 287.211 268.319 281.688V230.313C268.319 224.79 263.842 220.313 258.319 220.313C252.796 220.313 248.319 224.79 248.319 230.313V281.688C248.319 287.21 252.796 291.688 258.319 291.688Z" fill="#8C9E8A"/>
<path d="M170.753 220.313C165.23 220.313 160.753 224.79 160.753 230.313V281.688C160.753 287.211 165.23 291.688 170.753 291.688C176.276 291.688 180.753 287.211 180.753 281.688V230.313C180.753 224.79 176.276 220.313 170.753 220.313Z" fill="#8C9E8A"/>
</svg>
