<svg width="512" height="512" viewBox="0 0 512 512" fill="none" xmlns="http://www.w3.org/2000/svg">
<path d="M482.569 186.769H309.913L304.973 167.344H370.159C375.681 167.344 380.159 162.867 380.159 157.344V10C380.159 4.477 375.681 0 370.159 0H141.841C136.319 0 131.841 4.477 131.841 10V157.344C131.841 162.867 136.319 167.344 141.841 167.344H207.027L202.087 186.769H29.4307C23.9087 186.769 19.4307 191.246 19.4307 196.769V245.456C19.4307 250.979 23.9087 255.456 29.4307 255.456H41.7417V502C41.7417 507.523 46.2197 512 51.7417 512H92.3967C97.9187 512 102.397 507.523 102.397 502V255.456H215.989V435.358C215.989 440.881 220.467 445.358 225.989 445.358H409.604V502C409.604 507.523 414.082 512 419.604 512H460.259C465.781 512 470.259 507.523 470.259 502V255.456H482.57C488.092 255.456 492.57 250.979 492.57 245.456V196.769C492.569 191.246 488.092 186.769 482.569 186.769ZM151.841 20H360.159V147.344H151.841V20ZM227.663 167.344H284.337L289.276 186.769H222.723L227.663 167.344ZM82.3957 492H61.7407V255.456H82.3957V492ZM409.604 330.406H235.988V255.455H409.603V330.406H409.604ZM235.988 425.357V350.406H409.603V425.357H235.988ZM450.259 492H429.604V255.456H450.259V492ZM472.569 235.456H39.4307V206.769H472.57V235.456H472.569Z" fill="#8C9E8A"/>
<path d="M311.789 302.931H333.802C339.324 302.931 343.802 298.454 343.802 292.931C343.802 287.408 339.324 282.931 333.802 282.931H311.789C306.267 282.931 301.789 287.408 301.789 292.931C301.789 298.454 306.267 302.931 311.789 302.931Z" fill="#8C9E8A"/>
<path d="M333.802 377.882H311.789C306.267 377.882 301.789 382.359 301.789 387.882C301.789 393.405 306.267 397.882 311.789 397.882H333.802C339.324 397.882 343.802 393.405 343.802 387.882C343.802 382.359 339.324 377.882 333.802 377.882Z" fill="#8C9E8A"/>
</svg>
