<svg width="512" height="512" viewBox="0 0 512 512" fill="none" xmlns="http://www.w3.org/2000/svg">
<path d="M502 238.03H10C4.477 238.03 0 242.507 0 248.03V482.202C0 487.725 4.477 492.202 10 492.202H502C507.523 492.202 512 487.725 512 482.202V248.03C512 242.507 507.523 238.03 502 238.03ZM20 258.03H492V282.293H20V258.03ZM20 302.293H246V472.202H20V302.293ZM492 472.202H266V302.293H492V472.202Z" fill="#8C9E8A"/>
<path d="M300 448.202H458C463.523 448.202 468 443.725 468 438.202V336.293C468 330.77 463.523 326.293 458 326.293H300C294.477 326.293 290 330.77 290 336.293V438.202C290 443.725 294.477 448.202 300 448.202ZM310 346.293H448V428.202H310V346.293Z" fill="#8C9E8A"/>
<path d="M212 326.293H54C48.477 326.293 44 330.77 44 336.293V438.202C44 443.725 48.477 448.202 54 448.202H212C217.523 448.202 222 443.725 222 438.202V336.293C222 330.77 217.523 326.293 212 326.293ZM202 428.202H64V346.293H202V428.202Z" fill="#8C9E8A"/>
<path d="M502 19.7979H10C4.477 19.7979 0 24.2749 0 29.7979V149.707C0 155.23 4.477 159.707 10 159.707H502C507.523 159.707 512 155.23 512 149.707V29.7979C512 24.2749 507.523 19.7979 502 19.7979ZM20 39.7979H246V139.707H20V39.7979ZM492 139.707H266V39.7979H492V139.707Z" fill="#8C9E8A"/>
<path d="M352.575 122.801H405.426C410.949 122.801 415.426 118.324 415.426 112.801C415.426 107.278 410.949 102.801 405.426 102.801H352.575C347.052 102.801 342.575 107.278 342.575 112.801C342.575 118.324 347.052 122.801 352.575 122.801Z" fill="#8C9E8A"/>
<path d="M159.425 102.801H106.574C101.051 102.801 96.5742 107.278 96.5742 112.801C96.5742 118.324 101.051 122.801 106.574 122.801H159.425C164.948 122.801 169.425 118.324 169.425 112.801C169.425 107.278 164.948 102.801 159.425 102.801Z" fill="#8C9E8A"/>
<path d="M348.17 377.248H338.978C333.455 377.248 328.978 381.725 328.978 387.248C328.978 392.771 333.455 397.248 338.978 397.248H348.17C353.693 397.248 358.17 392.771 358.17 387.248C358.17 381.725 353.693 377.248 348.17 377.248Z" fill="#8C9E8A"/>
<path d="M163.83 397.248H173.022C178.545 397.248 183.022 392.771 183.022 387.248C183.022 381.725 178.545 377.248 173.022 377.248H163.83C158.307 377.248 153.83 381.725 153.83 387.248C153.83 392.771 158.307 397.248 163.83 397.248Z" fill="#8C9E8A"/>
</svg>
