<svg width="512" height="512" viewBox="0 0 512 512" fill="none" xmlns="http://www.w3.org/2000/svg">
<g clip-path="url(#clip0_1_91)">
<path d="M462.053 209.258V128.824C462.053 100.694 439.167 77.8076 411.037 77.8076H100.963C72.833 77.8076 49.947 100.694 49.947 128.824V209.258C22.079 211.2 0 234.493 0 262.845V403.595C0 409.118 4.477 413.595 10 413.595H30.291L26.913 418.583C23.815 423.155 25.012 429.373 29.584 432.47C31.302 433.634 33.253 434.192 35.183 434.192C38.389 434.192 41.538 432.653 43.472 429.799L54.447 413.595H456.299L467.274 429.799C469.208 432.653 472.356 434.192 475.562 434.192C477.492 434.192 479.443 433.634 481.162 432.47C485.734 429.373 486.931 423.155 483.833 418.583L480.455 413.595H502C507.522 413.595 512 409.118 512 403.595V262.845C512 234.493 489.92 211.2 462.053 209.258ZM69.947 128.824C69.947 111.721 83.861 97.8076 100.963 97.8076H411.037C428.14 97.8076 442.053 111.722 442.053 128.824V270.929C432.828 263.471 421.094 259 408.335 259H299.718C281.715 259 265.752 267.902 256 281.536C246.248 267.902 230.285 259 212.282 259H103.665C90.906 259 79.172 263.471 69.947 270.93V128.824ZM69.947 339.417V312.717C69.947 294.125 85.073 278.999 103.665 278.999H212.282C230.874 279 246 294.125 246 312.718V339.418L69.947 339.417ZM266 312.718C266 294.125 281.126 279 299.718 279H408.335C426.927 279 442.053 294.126 442.053 312.718V339.418H266V312.718ZM492 393.595H20V262.845C20 245.527 33.123 231.217 49.947 229.337V349.418C49.947 354.941 54.424 359.418 59.947 359.418H452.053C457.575 359.418 462.053 354.941 462.053 349.418V229.337C478.877 231.217 492 245.527 492 262.845V393.595Z" fill="#8C9E8A"/>
<path d="M239.427 209.943C241.38 211.896 243.939 212.872 246.498 212.872C249.057 212.872 251.617 211.896 253.569 209.943L256 207.512L258.431 209.943C260.384 211.896 262.943 212.872 265.502 212.872C268.061 212.872 270.62 211.896 272.573 209.943C276.478 206.038 276.478 199.706 272.573 195.8L270.142 193.369L272.573 190.938C276.478 187.033 276.478 180.701 272.573 176.795C268.667 172.89 262.337 172.89 258.43 176.795L256 179.228L253.569 176.797C249.664 172.892 243.332 172.892 239.426 176.797C235.521 180.702 235.521 187.034 239.426 190.94L241.857 193.371L239.426 195.802C235.522 199.706 235.522 206.038 239.427 209.943Z" fill="#8C9E8A"/>
<path d="M337.453 209.943C339.406 211.896 341.965 212.872 344.524 212.872C347.083 212.872 349.642 211.896 351.595 209.943L354.026 207.512L356.457 209.943C358.41 211.896 360.969 212.872 363.528 212.872C366.087 212.872 368.646 211.896 370.599 209.943C374.504 206.038 374.504 199.706 370.599 195.8L368.168 193.369L370.599 190.938C374.504 187.033 374.504 180.701 370.599 176.795C366.693 172.89 360.363 172.89 356.456 176.795L354.025 179.226L351.594 176.795C347.688 172.89 341.358 172.89 337.451 176.795C333.546 180.7 333.546 187.032 337.451 190.938L339.882 193.369L337.451 195.8C333.548 199.706 333.548 206.038 337.453 209.943Z" fill="#8C9E8A"/>
<path d="M141.401 209.942C143.354 211.895 145.913 212.871 148.472 212.871C151.031 212.871 153.591 211.894 155.543 209.942L157.973 207.512L160.403 209.942C162.356 211.895 164.915 212.871 167.474 212.871C170.033 212.871 172.593 211.894 174.545 209.942C178.45 206.037 178.451 199.705 174.545 195.8L172.114 193.369L174.545 190.938C178.45 187.033 178.45 180.701 174.545 176.796C170.64 172.891 164.308 172.891 160.403 176.796L157.973 179.226L155.543 176.796C151.638 172.89 145.306 172.891 141.401 176.796C137.496 180.701 137.495 187.033 141.401 190.938L143.832 193.369L141.401 195.8C137.495 199.706 137.496 206.037 141.401 209.942Z" fill="#8C9E8A"/>
</g>
<defs>
<clipPath id="clip0_1_91">
<rect width="512" height="512" fill="white"/>
</clipPath>
</defs>
</svg>
