<svg width="1938" height="743" viewBox="0 0 1938 743" fill="none" xmlns="http://www.w3.org/2000/svg">
<path d="M0 734.704V0H677V130.662H199.354V312.731H626.158V442.322H199.354V734.704H0Z" fill="#8C9E8A"/>
<mask id="mask0_9_79" style="mask-type:alpha" maskUnits="userSpaceOnUse" x="0" y="0" width="677" height="735">
<path d="M0 734.704V0H677V130.662H199.354V312.731H626.158V442.322H199.354V734.704H0Z" fill="#8C9E8A"/>
</mask>
<g mask="url(#mask0_9_79)">
<path d="M918.936 697.238C918.936 712.466 918.395 727.163 917.304 741.249C911.333 818.586 889.528 875.15 852.49 909.37C814.606 944.381 761.445 954.935 694.475 940.741C491.174 897.647 365.169 855.361 281.797 827.381C244.27 814.787 214.626 804.839 191.328 799.43C152.553 790.431 101.078 751.74 56.9779 698.459C9.52636 641.121 -19.2099 579.724 -21.8549 530.005C-25.5037 461.434 -55.9945 386.935 -80.9337 336.515C-109.984 277.78 -148.942 216.914 -185.151 173.701C-208.527 145.806 -209.322 117.239 -187.455 91.096C-149.588 45.831 -48.8192 13.6628 75.5186 7.14551C134.449 4.05926 195.396 0.86561 254.204 0.147745C319.227 -0.649256 374.57 1.76997 423.392 7.53549C481.685 14.4258 532.471 26.1378 578.64 43.3383C630.185 62.5454 674.896 88.1228 715.329 121.535C784.385 178.596 858.627 336.176 895.874 504.732C911.106 573.687 918.927 639.318 918.927 697.238L918.936 697.238ZM-200.645 130.313C-200.645 144.393 -194.709 158.728 -182.838 172.893C-146.551 216.196 -107.523 277.17 -78.4284 335.995C-53.4456 386.517 -22.8849 461.18 -19.2274 529.948C-16.5912 579.413 12.0229 640.544 59.2999 697.662C103.103 750.587 154.037 788.972 192.227 797.836C215.7 803.284 245.405 813.255 283.019 825.877C366.321 853.835 492.204 896.075 695.305 939.13C761.044 953.064 813.209 942.725 850.36 908.398C887.101 874.443 908.749 818.179 914.703 741.164C919.923 673.622 912.52 591.95 893.299 504.975C856.113 336.679 782.09 179.433 713.286 122.58C673.063 89.3437 628.605 63.9076 577.348 44.8079C531.441 27.7035 480.934 16.0538 422.938 9.20301C314.129 -3.65636 192.943 2.69701 75.7455 8.83559C-47.7193 15.302 -147.685 47.1311 -185.133 91.9043C-195.477 104.266 -200.636 117.182 -200.636 130.313L-200.645 130.313Z" fill="#343434" fill-opacity="0.5"/>
<path d="M874.853 687.808C874.853 699.854 874.478 711.52 873.718 722.769C868.926 793.707 849.539 845.591 816.089 876.991C782.272 908.729 734.689 918.531 674.659 906.124C492.919 869.513 372.308 831.279 292.506 805.984C255.041 794.109 225.449 784.731 201.854 779.344C163.717 770.628 114.144 734.758 72.4712 685.728C27.8479 633.228 0.377332 576.104 -2.90482 529.002C-6.74565 465.751 -34.1988 397.136 -56.5454 350.717C-82.8026 296.182 -116.567 241.608 -149.196 200.983C-169.78 175.344 -169.841 149.128 -149.371 125.161C-113.843 83.5591 -21.1313 53.9854 92.6006 47.9881C199.89 42.2621 310.838 36.3383 412.742 48.4685C466.417 54.8558 513.231 65.6633 555.856 81.5072C603.403 99.1768 644.692 122.668 682.088 153.305C746.552 205.771 816.455 350.678 852.088 505.686C867.119 571.09 874.862 633.284 874.862 687.814L874.853 687.808ZM-162.203 162.332C-162.203 174.875 -157.14 187.627 -147.014 200.243C-114.324 240.946 -80.4894 295.617 -54.1972 350.237C-31.807 396.751 -4.30148 465.508 -0.443203 528.929C2.8215 575.793 30.1786 632.663 74.6273 684.954C116.021 733.655 165.087 769.243 202.675 777.835C226.41 783.25 256.054 792.65 293.589 804.543C373.33 829.821 493.826 868.015 675.401 904.592C734.288 916.762 780.936 907.169 814.063 876.075C847.243 844.93 866.482 793.323 871.257 722.69C875.455 660.62 867.975 585.657 849.643 505.906C814.072 351.147 744.379 206.557 680.15 154.283C642.955 123.799 601.893 100.443 554.625 82.8751C512.245 67.1217 465.692 56.3763 412.288 50.023C310.698 37.9323 199.917 43.8448 92.7839 49.5651C-20.1362 55.5228 -112.098 84.78 -147.232 125.924C-157.218 137.619 -162.212 149.874 -162.212 162.332L-162.203 162.332Z" fill="#343434" fill-opacity="0.5"/>
<path d="M830.859 678.282C830.859 687.202 830.623 695.878 830.151 704.306C826.546 768.846 809.568 816.055 779.706 844.623C749.957 873.089 707.944 882.133 654.836 871.5C493.486 841.13 382.626 808.159 301.69 784.085C264.957 773.159 235.942 764.533 212.364 759.248C174.288 750.685 127.779 718.437 87.9481 672.986C46.1617 625.307 19.9569 572.456 16.0375 527.989C8.72246 422.988 -65.2919 291.218 -113.25 228.261C-131.04 204.876 -130.368 181 -111.294 159.204C-78.1063 121.271 6.5576 94.3028 109.657 88.8199C202.361 83.761 307.433 78.035 402.075 89.3908C451.132 95.2807 493.975 105.178 533.055 119.66C576.605 135.798 614.472 157.192 648.83 185.065C678.867 209.088 710.231 253.352 739.517 313.065C767.651 370.42 792.075 439.171 808.302 506.639C823.168 568.46 830.859 627.201 830.859 678.276L830.859 678.282ZM-123.803 194.391C-123.803 205.385 -119.605 216.549 -111.19 227.605C-63.1445 290.67 11.0008 422.694 18.3332 527.915C22.2352 572.157 48.3353 624.77 89.9471 672.257C129.508 717.397 175.554 749.396 213.115 757.846C236.797 763.154 265.857 771.797 302.65 782.74C383.525 806.791 494.298 839.734 655.499 870.082C707.542 880.499 748.683 871.653 777.803 843.792C807.421 815.456 824.259 768.512 827.847 704.255C831.007 647.657 823.465 579.398 806.024 506.877C789.814 439.476 765.416 370.81 737.317 313.523C708.118 253.991 676.903 209.896 647.032 186.008C612.857 158.277 575.2 137.002 531.912 120.965C493.058 106.569 450.452 96.7221 401.656 90.8661C307.32 79.5442 202.404 85.2645 109.849 90.3178C7.50033 95.7612 -76.4739 122.441 -109.295 159.951C-118.967 171.001 -123.803 182.6 -123.803 194.397L-123.803 194.391Z" fill="#343434" fill-opacity="0.5"/>
<path d="M786.987 668.623C786.987 674.496 786.874 680.239 786.638 685.869C784.211 744.01 769.66 786.539 743.385 812.28C717.678 837.462 681.225 845.737 635.039 836.88C492.58 812.501 386.076 783.023 308.317 761.499C274.805 752.223 245.868 744.213 222.893 739.154C185.436 730.868 140.778 701.368 103.444 660.252C64.5118 617.372 39.5552 568.795 34.9898 526.978C31.6466 485.364 16.8594 434.238 -7.77419 379.109C-27.5457 334.862 -52.8864 289.823 -77.293 255.535C-92.3072 234.406 -90.893 212.859 -73.1903 193.228C-42.3154 158.979 34.2915 134.623 126.742 129.66C223.775 124.228 310.673 120.531 391.435 130.321C435.875 135.708 474.755 144.707 510.291 157.826C549.834 172.427 584.288 191.73 615.608 216.838C643.515 238.702 672.714 278.812 700.045 332.832C726.189 384.513 749.112 446.588 764.588 507.629C779.341 565.833 787.013 621.074 787.013 668.634L786.987 668.623ZM-85.4548 226.481C-85.4548 235.915 -82.094 245.473 -75.3551 254.958C-50.9048 289.303 -25.5205 334.415 -5.72287 378.725C18.9544 433.955 33.7765 485.189 37.1197 526.893C41.6676 568.489 66.5107 616.846 105.286 659.545C142.367 700.384 186.597 729.658 223.583 737.837C246.636 742.913 275.608 750.934 309.155 760.221C386.853 781.729 493.269 811.184 635.615 835.54C680.824 844.211 716.473 836.128 741.596 811.512C767.652 785.985 782.082 743.699 784.5 685.823C786.621 634.685 779.009 573.141 762.45 507.838C746.99 446.865 724.103 384.863 697.985 333.251C670.741 279.394 641.673 239.442 613.923 217.703C582.769 192.725 548.516 173.534 509.209 159.019C473.882 145.979 435.221 137.031 391.025 131.672C310.534 121.916 223.792 125.607 126.908 131.028C35.1382 135.957 -40.8315 160.053 -71.3572 193.917C-80.7498 204.335 -85.4635 215.312 -85.4635 226.47L-85.4548 226.481Z" fill="#343434" fill-opacity="0.5"/>
<path d="M743.27 658.817C743.27 661.739 743.235 664.622 743.166 667.476C741.926 719.219 729.793 757.073 707.097 779.989C685.414 801.881 654.504 809.381 615.214 802.271C489.724 783.691 386.179 757.254 310.576 737.951C280.6 730.298 254.71 723.684 233.402 719.078C195.98 710.938 154.255 684.857 118.919 647.529C82.8416 609.414 59.1508 565.116 53.9308 525.983C46.6943 448.426 -0.539062 345.574 -41.3565 282.825C-53.6122 263.929 -51.4473 244.705 -35.0977 227.233C-6.51849 196.693 62.0226 174.954 143.788 170.505C226.523 165.729 306.901 162.196 380.75 171.257C420.563 176.141 455.48 184.235 487.472 195.992C523.017 209.055 554.04 226.267 582.331 248.605C608.108 268.31 635.16 304.277 660.544 352.605C684.707 398.611 706.128 454.022 720.863 508.63C735.571 563.171 743.27 614.863 743.279 658.817L743.27 658.817ZM-47.1962 258.644C-47.1962 266.49 -44.6473 274.437 -39.5321 282.328C1.34646 345.172 48.6584 448.2 55.9036 525.887C61.0974 564.81 84.6835 608.905 120.613 646.856C155.712 683.936 197.054 709.813 234.039 717.857C255.39 722.475 281.307 729.094 311.309 736.753C386.851 756.045 490.318 782.459 615.712 801.027C654.111 807.974 684.279 800.66 705.438 779.293C727.933 756.582 739.962 718.953 741.193 667.453C742.267 621.782 734.585 566.936 718.907 508.851C704.19 454.31 682.804 398.967 658.668 353.018C633.362 304.836 606.441 269.017 580.812 249.425C552.678 227.2 521.83 210.089 486.503 197.106C454.703 185.416 419.987 177.373 380.392 172.512C306.788 163.479 226.558 167.012 143.972 171.777C62.8258 176.192 -5.13059 197.688 -33.3868 227.889C-42.5698 237.702 -47.1788 248.08 -47.1788 258.639L-47.1962 258.644Z" fill="#343434" fill-opacity="0.5"/>
<path d="M699.783 648.778L699.783 649.1C699.739 694.445 690.024 727.625 670.916 747.713C653.231 766.316 627.82 773.019 595.4 767.638C484.601 754.858 381.187 730.682 305.68 713.03C282.033 707.502 261.616 702.725 243.913 698.966C207.059 691.093 167.14 667.691 134.397 634.777C101.183 601.388 78.749 561.357 72.8655 524.955C69.1993 491.442 58.4625 451.931 40.9693 407.497C27.8058 374.074 10.8974 338.571 -5.42605 310.082C-14.9321 293.407 -12.0078 276.495 3.04121 261.16C29.3508 234.345 89.8175 215.251 160.846 211.328C230.016 207.179 303.149 203.833 370.084 212.17C405.28 216.556 436.216 223.741 464.681 234.141C496.22 245.667 523.83 260.787 549.075 280.362C595.967 315.147 647.469 407.299 677.218 509.654C691.988 560.458 699.783 608.555 699.783 648.778ZM-9.06609 290.875C-9.06609 297.11 -7.28534 303.412 -3.71513 309.675C12.6258 338.198 29.5603 373.752 42.7326 407.209C60.2519 451.705 70.9975 491.289 74.6725 524.853C80.5297 561.058 102.85 600.896 135.916 634.138C168.441 666.832 208.01 690.053 244.472 697.847C262.192 701.612 282.627 706.388 306.283 711.922C381.728 729.563 485.055 753.716 595.767 766.485C627.392 771.731 652.122 765.202 669.345 747.092C688.269 727.189 697.898 694.218 697.941 649.095L697.941 648.773C697.941 608.623 690.155 560.605 675.403 509.869C645.706 407.7 594.37 315.78 547.66 281.125C522.547 261.652 495.102 246.622 463.756 235.164C435.474 224.832 404.712 217.687 369.717 213.323C303.018 205.014 230.034 208.36 160.986 212.498C90.5071 216.393 30.5642 235.277 4.56007 261.788C-4.5095 271.029 -9.08356 280.865 -9.08356 290.864L-9.06609 290.875Z" fill="#343434" fill-opacity="0.5"/>
<path d="M656.653 638.63C656.653 673.585 649.346 699.428 634.9 715.515C621.16 730.81 601.232 736.706 575.646 733.037C477.129 726.599 368.522 703.3 289.209 686.286C276.761 683.618 265.011 681.097 254.432 678.887C217.56 671.148 180.435 650.963 149.883 622.051C119.087 592.896 98.4596 558.059 91.808 523.958C88.7354 500.382 76.628 435.05 30.5207 337.364C23.7469 322.888 27.4481 308.254 41.2488 295.044C65.315 272.005 117.681 255.579 177.903 252.176C234.276 248.632 299.439 245.489 359.417 253.109C422.808 261.158 473.961 280.467 515.817 312.137C537.378 327.546 560.161 355.237 581.704 392.199C602.218 427.403 620.191 468.389 633.678 510.726C647.601 554.447 655.509 595.965 656.539 630.79C656.618 633.452 656.653 636.069 656.653 638.635L656.653 638.63ZM28.8884 323.256C28.8884 327.834 29.9621 332.452 32.1094 337.048C39.4856 352.677 53.8275 384.427 66.9649 421.462C80.7656 460.345 89.6781 494.786 93.4578 523.839C100.074 557.754 120.597 592.421 151.253 621.435C181.596 650.149 218.415 670.187 254.938 677.852C265.518 680.062 277.276 682.583 289.732 685.251C368.984 702.254 477.514 725.536 575.865 731.958L575.961 731.969C600.778 735.541 620.121 729.821 633.459 714.966C648.596 698.111 656.007 669.006 654.872 630.801C653.842 596.038 645.951 554.594 632.045 510.935C618.576 468.654 600.629 427.719 580.151 392.566C558.686 355.729 536.007 328.162 514.577 312.838C472.966 281.348 422.11 262.158 359.111 254.154C299.352 246.563 234.329 249.7 178.078 253.239C118.327 256.613 66.4411 272.858 42.6455 295.638C33.5236 304.365 28.9059 313.731 28.9059 323.244L28.8884 323.256Z" fill="#343434" fill-opacity="0.5"/>
<path d="M614.062 627.419C614.062 652.239 608.99 671.412 599.161 683.378C589.288 695.395 574.728 700.454 555.873 698.419C467.412 700.245 325.538 671.197 264.94 658.795C189.267 643.212 125.859 587.348 110.749 522.95C102.683 471.755 82.2741 411.415 70.0883 375.364C68.7964 371.537 67.583 367.942 66.4657 364.624C62.3892 352.307 66.9371 339.911 79.5943 328.793C101.452 309.591 145.656 295.884 194.967 293.013C245.064 289.661 298.364 287.468 348.757 294.036C402.529 301.045 446.296 317.352 482.566 343.902C520.843 369.994 563.127 435.902 590.275 511.809C603.325 548.307 611.356 583.126 613.503 612.502C613.878 617.674 614.07 622.654 614.07 627.424L614.062 627.419ZM66.5268 355.846C66.5268 358.7 66.9981 361.56 67.9409 364.42C69.0495 367.738 70.2629 371.328 71.5635 375.155C83.7581 411.223 104.184 471.597 112.25 522.825C127.273 586.851 190.254 642.386 265.403 657.863C325.939 670.259 467.709 699.284 555.908 697.441L555.987 697.441L556.065 697.447C574.248 699.425 588.302 694.536 597.843 682.92C609.435 668.806 614.332 644.466 612.01 612.541C609.872 583.222 601.858 548.459 588.826 512.023C561.731 436.28 519.595 370.548 481.475 344.558C400.94 285.602 295.867 287.247 195.142 293.979C146.233 296.828 102.438 310.389 80.8338 329.369C71.3802 337.673 66.553 346.689 66.553 355.84L66.5268 355.846Z" fill="#343434" fill-opacity="0.5"/>
<path d="M572.487 615.766C572.487 630.937 569.693 643.101 564.002 651.286C557.865 660.098 548.499 664.309 536.164 663.801C512.09 668.684 471.036 667.774 414.14 661.104C372.685 656.243 322.144 648.081 275.469 638.704C200.599 623.583 146.112 579.935 129.71 521.941C125.738 501.614 120.963 480.457 116.346 459.995C110.375 433.53 104.745 408.535 102.423 391.883C100.555 377.865 111.449 364.09 133.088 353.096C153.602 342.673 182.373 335.663 212.034 333.849C279.921 328.914 315.064 331.854 338.101 334.962C382.235 340.92 418.618 354.237 449.318 375.666C483.475 397.535 520.958 450.092 547.111 512.823C563.818 552.893 572.495 589.007 572.495 615.766L572.487 615.766ZM103.566 388.797C103.566 389.797 103.636 390.798 103.767 391.804C106.08 408.433 111.71 433.412 117.681 459.865C122.299 480.333 127.065 501.496 131.037 521.805C147.343 579.449 201.481 622.848 275.862 637.867C322.493 647.233 372.973 655.39 414.376 660.245C471.15 666.904 512.037 667.808 535.876 662.941L535.999 662.919L536.121 662.919C547.897 663.439 556.861 659.409 562.771 650.93C578.405 628.49 571.902 575.656 545.801 513.055C519.71 450.465 482.367 398.055 448.349 376.276C417.832 354.972 381.685 341.745 337.83 335.822C294.167 329.926 247.745 332.136 212.183 334.725C182.757 336.517 154.239 343.464 133.926 353.785C114.216 363.801 103.575 376.135 103.575 388.797L103.566 388.797Z" fill="#343434" fill-opacity="0.5"/>
<path d="M532.856 603.163C532.856 609.438 531.974 614.734 530.167 618.843C527.514 624.852 522.939 628.317 516.558 629.136C503.037 640.498 457.139 639.752 420.957 637.118C380.148 634.144 329.694 627.226 285.97 618.611C248.356 611.167 219.043 599.8 196.348 583.854C173.172 567.57 157.573 546.989 148.643 520.931C138.709 481.471 134.685 441.514 138.386 419.119C140.263 408.215 151.174 397.6 169.095 389.229C185.864 381.4 207.731 376.098 229.091 374.691C285.498 370.072 357.714 369.62 416.051 407.43C445.87 424.93 478.788 464.474 504.067 513.193C522.547 548.798 532.856 581.69 532.856 603.169L532.856 603.163ZM138.22 438.614C138.22 461.134 142.341 491.097 149.813 520.779C158.681 546.678 174.193 567.14 197.221 583.323C219.768 599.167 248.906 610.466 286.31 617.865C368.024 633.975 493.226 647.937 515.738 628.549L515.878 628.43L516.105 628.402C522.119 627.695 526.457 624.405 529.006 618.628C536.967 600.586 526.728 559.294 502.924 513.43C477.705 464.83 444.918 425.404 415.213 407.978C357.226 370.395 285.35 370.852 229.213 375.448L229.195 375.448C208.036 376.844 186.37 382.095 169.767 389.85C152.117 398.092 141.389 408.515 139.547 419.198C138.639 424.698 138.203 431.26 138.203 438.614L138.22 438.614Z" fill="#343434" fill-opacity="0.5"/>
<path d="M498.542 588.043C498.542 590.751 498.009 592.859 496.901 594.267C497.913 598.783 495.757 602.565 490.52 605.51C475.191 614.13 436.975 613.977 407.602 612.332C372.659 610.376 331.117 605.204 296.471 598.506C257.286 590.915 231.177 582.464 211.833 571.103C191.198 558.99 177.135 542.716 167.577 519.903C158.638 493.851 161.309 464.972 174.377 446.325C186.222 429.61 220.161 417.531 246.13 415.513C299.797 410.217 345.773 418.181 382.767 439.174C397.904 446.975 413.686 459.128 429.669 475.277C443.505 489.261 457.052 505.874 468.837 523.334C487.29 550.664 498.524 575.619 498.524 588.038L498.542 588.043ZM495.836 594.154L495.914 594.058C497.023 592.712 497.547 590.666 497.547 588.027C497.547 560.691 440.72 469.907 382.121 439.7C345.345 418.831 299.657 410.923 246.296 416.191L246.279 416.191C220.589 418.187 187.025 430.113 175.328 446.619C162.348 465.142 159.703 493.856 168.589 519.762C178.087 542.434 192.044 558.6 212.532 570.628C231.762 581.916 257.74 590.321 296.768 597.884C331.353 604.571 372.816 609.726 407.698 611.682C436.871 613.316 474.799 613.485 489.848 605.023C494.841 602.214 496.866 598.597 495.853 594.272L495.827 594.165L495.836 594.154Z" fill="#343434" fill-opacity="0.5"/>
<path d="M483.503 571.797C483.503 574.505 482.263 576.93 479.767 579.055C473.525 584.386 456.093 590.485 408.528 589.298C376.641 588.501 338.687 584.436 306.991 578.428C269.534 571.328 245.477 566.433 227.355 558.384C208.605 550.058 196.777 538.623 186.547 518.907C180.908 508.043 182.261 497.739 190.562 488.288C208.526 467.854 253.115 457.77 263.188 456.368C282.008 453.751 302.932 455.764 325.383 462.354C344.71 468.029 365.214 477.09 386.348 489.294C424.538 511.35 458.162 540.019 476.895 559.492C481.303 564.076 483.512 568.191 483.512 571.797L483.503 571.797ZM183.998 506.042C183.998 510.169 185.115 514.397 187.367 518.726C197.536 538.312 209.26 549.668 227.844 557.921C245.87 565.919 269.857 570.803 307.236 577.885C365.022 588.84 459.472 595.442 479.077 578.716C484.646 573.968 483.66 567.603 476.153 559.797C457.455 540.358 423.892 511.74 385.763 489.724C364.699 477.56 344.265 468.527 325.017 462.88C302.74 456.34 282 454.339 263.372 456.928C253.377 458.319 209.12 468.323 191.321 488.576C186.451 494.121 184.006 499.966 184.006 506.054L183.998 506.042Z" fill="#343434" fill-opacity="0.5"/>
</g>
<path d="M260 735.607V313H351.657V480.564H538.661V313H630.317V735.607H538.661V558.186H351.657V735.607H260Z" fill="#2F3133"/>
<path d="M865.245 743C829.977 743 800.04 737.045 775.434 725.135C750.828 712.814 732.169 694.127 719.456 669.074C706.743 643.611 700.386 611.782 700.386 573.587C700.386 534.571 706.743 502.742 719.456 478.1C732.169 453.048 750.828 434.566 775.434 422.656C800.04 410.335 829.977 404.175 865.245 404.175C901.333 404.175 931.476 410.335 955.671 422.656C980.277 434.566 998.936 453.048 1011.65 478.1C1024.36 502.742 1030.72 534.571 1030.72 573.587C1030.72 611.782 1024.36 643.611 1011.65 669.074C998.936 694.127 980.277 712.814 955.671 725.135C931.476 737.045 901.333 743 865.245 743ZM865.245 676.467C884.109 676.467 899.078 672.976 910.151 665.994C921.633 659.012 930.04 648.334 935.371 633.96C940.703 619.586 943.368 601.925 943.368 580.98V566.195C943.368 545.249 940.703 527.589 935.371 513.215C930.04 498.84 921.633 488.162 910.151 481.181C899.078 473.788 884.109 470.092 865.245 470.092C846.791 470.092 831.822 473.788 820.339 481.181C809.267 488.162 801.065 498.84 795.734 513.215C790.402 527.589 787.737 545.249 787.737 566.195V580.98C787.737 601.925 790.402 619.586 795.734 633.96C801.065 648.334 809.267 659.012 820.339 665.994C831.822 672.976 846.791 676.467 865.245 676.467Z" fill="#2F3133"/>
<path d="M1093.64 735.607V411.567H1164.38L1171.14 455.923H1175.45C1182.42 445.245 1190.62 436.004 1200.06 428.201C1209.9 420.397 1220.77 414.442 1232.66 410.335C1244.96 406.228 1258.09 404.175 1272.03 404.175C1292.53 404.175 1310.17 408.282 1324.93 416.496C1340.1 424.71 1351.79 437.852 1359.99 455.923H1364.3C1371.27 445.245 1379.68 436.004 1389.52 428.201C1399.36 420.397 1410.64 414.442 1423.35 410.335C1436.07 406.228 1449.6 404.175 1463.95 404.175C1484.46 404.175 1502.09 407.871 1516.86 415.264C1532.03 422.656 1543.92 434.772 1552.53 451.61C1561.15 468.038 1565.45 489.394 1565.45 515.679V735.607H1479.95V531.08C1479.95 520.813 1478.72 512.188 1476.26 505.206C1474.21 497.814 1471.13 492.064 1467.03 487.957C1462.93 483.439 1457.8 480.154 1451.65 478.1C1445.5 476.047 1438.94 475.02 1431.97 475.02C1420.48 475.02 1410.23 478.1 1401.21 484.261C1392.19 490.421 1385.01 498.84 1379.68 509.519C1374.76 520.197 1372.3 532.518 1372.3 546.481V735.607H1286.79V531.08C1286.79 520.813 1285.56 512.188 1283.1 505.206C1281.05 497.814 1277.98 492.064 1273.87 487.957C1269.77 483.439 1264.65 480.154 1258.5 478.1C1252.75 476.047 1246.19 475.02 1238.81 475.02C1227.74 475.02 1217.49 478.1 1208.05 484.261C1199.03 490.421 1191.85 498.84 1186.52 509.519C1181.6 520.197 1179.14 532.518 1179.14 546.481V735.607H1093.64Z" fill="#2F3133"/>
<path d="M1788.52 743C1752.84 743 1722.9 737.045 1698.71 725.135C1674.51 712.814 1656.26 694.127 1643.96 669.074C1631.66 644.022 1625.51 612.193 1625.51 573.587C1625.51 534.571 1631.66 502.742 1643.96 478.1C1656.26 453.048 1674.31 434.566 1698.09 422.656C1722.29 410.335 1751.82 404.175 1786.67 404.175C1819.48 404.175 1847.16 410.13 1869.72 422.04C1892.27 433.54 1909.29 451.61 1920.78 476.252C1932.26 500.483 1938 531.902 1938 570.507V592.685H1712.24C1713.06 611.577 1715.93 627.594 1720.85 640.736C1726.19 653.879 1734.18 663.735 1744.84 670.307C1755.92 676.467 1770.48 679.547 1788.52 679.547C1798.36 679.547 1807.18 678.315 1814.97 675.851C1823.17 673.387 1830.14 669.691 1835.89 664.762C1841.63 659.834 1846.14 653.673 1849.42 646.281C1852.7 638.888 1854.34 630.469 1854.34 621.023H1938C1938 641.558 1934.31 659.423 1926.93 674.619C1919.55 689.815 1909.29 702.546 1896.17 712.814C1883.05 722.67 1867.26 730.268 1848.8 735.607C1830.76 740.536 1810.67 743 1788.52 743ZM1713.47 538.473H1850.03C1850.03 526.152 1848.39 515.474 1845.11 506.438C1842.24 497.403 1838.14 490.011 1832.81 484.261C1827.48 478.511 1820.92 474.404 1813.13 471.94C1805.74 469.065 1797.34 467.628 1787.9 467.628C1772.32 467.628 1759.2 470.297 1748.54 475.636C1738.28 480.564 1730.29 488.368 1724.54 499.046C1719.21 509.313 1715.52 522.456 1713.47 538.473Z" fill="#2F3133"/>
<path d="M1099.1 62.3098C1098.32 53.3589 1102.06 44.6114 1109.06 38.977C1116.05 33.1084 1124.91 29.9213 1134.04 30.0015C1137.68 30.0323 1141.29 30.5131 1144.8 31.444C1200.6 45.9861 1257.9 54.0308 1315.55 55.4117C1373.2 54.0308 1430.5 45.9861 1486.3 31.444C1498.76 27.9857 1512.13 30.8275 1522.11 39.051C1529.09 44.6916 1532.79 53.4329 1532 62.3653C1522.64 152.892 1477.48 260.857 1315.55 260.857C1273.32 262.312 1231.48 252.455 1194.34 232.303C1194.14 232.204 1193.98 232.044 1193.78 231.946C1128.57 193.725 1105.48 124.017 1099.1 62.3098ZM1440.92 372.029C1430.99 373.12 1421.41 374.081 1412.18 374.92L1402.98 278.044C1412.53 275.245 1421.89 271.836 1431 267.829L1440.92 372.029ZM1228.12 277.989L1218.92 374.846C1209.69 374.038 1200.11 373.077 1190.19 371.961L1200.11 267.7C1209.21 271.731 1218.57 275.165 1228.12 277.989Z" fill="#2F3133"/>
</svg>
