<svg width="2600" height="1300" viewBox="0 0 2600 1300" fill="none" xmlns="http://www.w3.org/2000/svg">
<g clip-path="url(#clip0_7_279)">
<rect width="2600" height="1300" fill="#E5E9E2"/>
<path d="M2749.43 623.959C2748.79 636.056 2747.75 647.708 2746.31 658.852C2738.43 720.04 2719.22 764.077 2689.19 789.738C2658.48 815.994 2617.02 822.193 2565.95 808.167C2410.91 765.583 2315.47 726.816 2252.33 701.166C2223.91 689.62 2201.46 680.5 2183.71 675.246C2154.17 666.505 2116.09 633.655 2084.32 589.52C2050.13 542.023 2030.56 492.071 2030.62 452.468C2030.7 397.849 2010.33 337.417 1993.22 296.341C1973.29 248.491 1945.8 198.541 1919.69 162.727C1902.84 139.608 1903.43 116.882 1921.41 97.014C1952.54 62.6129 2031.65 41.1994 2127.86 41.1301C2173.46 41.0993 2220.62 41.0661 2266.03 42.9117C2316.23 44.9497 2358.83 49.1449 2396.26 55.7304C2440.94 63.5985 2479.63 74.9883 2514.53 90.5482C2553.48 107.923 2586.9 130.077 2616.68 158.279C2667.55 206.444 2718.17 334.668 2739.78 470.093C2748.62 525.493 2751.88 577.949 2749.43 623.959L2749.43 623.959ZM1909.57 127.624C1908.98 138.809 1912.95 150.44 1921.51 162.18C1947.68 198.069 1975.21 248.107 1995.17 296.031C2012.31 337.189 2032.74 397.754 2032.65 452.531C2032.59 491.932 2052.08 541.668 2086.14 588.982C2117.7 632.823 2155.38 665.407 2184.47 674.016C2202.35 679.309 2224.85 688.45 2253.34 700.021C2316.43 725.651 2411.77 764.377 2566.65 806.922C2616.79 820.69 2657.47 814.621 2687.59 788.879C2717.37 763.416 2736.46 719.611 2744.31 658.678C2751.19 605.24 2748.94 540.059 2737.78 470.18C2716.21 334.965 2665.75 207.014 2615.06 159.026C2585.43 130.972 2552.21 108.94 2513.47 91.6626C2478.77 76.1897 2440.29 64.8608 2395.83 57.0364C2312.42 42.3516 2218.65 42.4201 2127.97 42.4819C2032.43 42.5467 1953.95 63.7238 1923.17 97.7515C1914.66 107.146 1910.14 117.194 1909.58 127.625L1909.57 127.624Z" fill="#343434" fill-opacity="0.07"/>
<path d="M2715.82 614.658C2715.31 624.227 2714.53 633.479 2713.46 642.383C2706.77 698.537 2689.61 738.955 2662.48 762.523C2635.04 786.346 2597.91 792.177 2552.12 779.855C2413.44 743.307 2322 707.981 2261.5 684.61C2233.09 673.637 2210.66 664.973 2192.68 659.724C2163.62 651.234 2126.89 620.703 2096.81 580.044C2064.6 536.507 2045.82 490.002 2045.28 452.451C2044.99 402.049 2026.71 346.416 2011.44 308.626C1993.48 264.227 1969.74 219.488 1946.28 185.877C1931.48 164.664 1932.55 143.837 1949.35 125.64C1978.52 94.052 2051.31 74.3685 2139.32 74.2765C2222.34 74.1355 2308.19 73.9876 2386.31 87.8095C2427.45 95.0883 2463.11 105.596 2495.33 119.933C2531.27 135.922 2562.13 156.279 2589.69 182.152C2637.21 226.477 2685.02 344.457 2705.96 469.052C2714.79 521.625 2718.13 571.347 2715.82 614.663L2715.82 614.658ZM1937.88 154.639C1937.35 164.603 1940.72 174.941 1948 185.378C1971.5 219.054 1995.29 263.873 2013.27 308.34C2028.58 346.209 2046.89 401.957 2047.19 452.494C2047.72 489.855 2066.42 536.154 2098.51 579.518C2128.39 619.905 2164.74 650.19 2193.38 658.559C2211.46 663.836 2233.94 672.52 2262.39 683.51C2322.85 706.865 2414.21 742.154 2552.76 778.669C2597.68 790.755 2634.08 785.052 2660.95 761.713C2687.87 738.335 2704.9 698.131 2711.57 642.219C2717.43 593.086 2714.83 533.231 2704.06 469.127C2683.16 344.732 2635.5 227.012 2588.16 182.849C2560.75 157.106 2530.05 136.866 2494.32 120.969C2462.29 106.714 2426.83 96.2663 2385.89 89.0256C2308.02 75.248 2222.29 75.3938 2139.39 75.5368C2052.01 75.6306 1979.82 95.0936 1950.97 126.334C1942.77 135.213 1938.4 144.743 1937.87 154.639L1937.88 154.639Z" fill="#343434" fill-opacity="0.07"/>
<path d="M2682.28 605.283C2681.9 612.369 2681.35 619.251 2680.63 625.927C2675.12 677.046 2660.02 713.85 2635.77 735.316C2611.62 756.706 2578.82 762.165 2538.29 751.537C2415.08 720.784 2330.94 690.039 2269.51 667.591C2241.63 657.402 2219.61 649.359 2201.64 644.192C2172.62 635.825 2138.1 608.299 2109.29 570.557C2079.07 530.967 2061.09 487.908 2059.94 452.424C2058.74 368.715 2007.2 261.002 1972.86 209.021C1960.13 189.715 1961.66 170.776 1977.29 154.246C2004.5 125.476 2070.97 107.532 2150.75 107.412C2222.49 107.201 2303.8 106.969 2376.35 119.878C2413.95 126.572 2446.59 136.194 2476.13 149.303C2509.05 163.911 2537.36 182.462 2562.69 206.014C2584.85 226.33 2607.18 262.781 2627.25 311.417C2646.53 358.134 2662.47 413.75 2672.13 468.011C2680.99 517.729 2684.44 564.706 2682.28 605.279L2682.28 605.283ZM1966.15 181.683C1965.69 190.416 1968.46 199.456 1974.48 208.585C2008.88 260.654 2060.51 368.575 2061.72 452.46C2062.86 487.764 2080.77 530.63 2110.87 570.06C2139.48 607.543 2173.66 634.853 2202.28 643.109C2220.33 648.298 2242.38 656.357 2270.31 666.562C2331.69 688.989 2415.77 719.708 2538.86 750.437C2578.58 760.85 2610.69 755.514 2634.34 734.578C2658.39 713.286 2673.37 676.687 2678.85 625.792C2683.69 580.962 2680.75 526.43 2670.36 468.105C2660.71 413.9 2644.79 358.352 2625.53 311.69C2605.52 263.201 2583.3 226.892 2561.26 206.69C2536.07 183.257 2507.91 164.81 2475.19 150.293C2445.82 137.261 2413.36 127.689 2375.96 121.032C2303.65 108.163 2222.46 108.398 2150.83 108.61C2071.63 108.729 2005.71 126.473 1978.8 154.921C1970.87 163.301 1966.65 172.316 1966.15 181.687L1966.15 181.683Z" fill="#343434" fill-opacity="0.07"/>
<path d="M2648.83 595.809C2648.59 600.475 2648.26 605.032 2647.84 609.494C2643.5 655.58 2630.48 688.765 2609.12 708.134C2588.22 727.081 2559.74 732.157 2524.48 723.224C2415.59 698.006 2334.66 670.215 2275.58 649.922C2250.11 641.178 2228.13 633.626 2210.61 628.664C2182.06 620.543 2148.85 595.274 2121.79 561.08C2093.56 525.419 2076.36 485.806 2074.61 452.4C2073.79 419.207 2064.54 377.987 2047.86 333.183C2034.48 297.222 2016.83 260.404 1999.45 232.165C1988.76 214.764 1990.76 197.706 2005.25 182.839C2030.52 156.902 2090.66 140.701 2162.2 140.556C2237.3 140.228 2304.51 140.861 2366.4 151.955C2400.47 158.06 2430.08 166.805 2456.95 178.687C2486.84 191.909 2512.61 208.658 2535.71 229.89C2556.32 248.404 2577.15 281.465 2595.95 325.499C2613.94 367.626 2629 417.878 2638.36 467.002C2647.28 513.843 2650.87 558.04 2648.85 595.819L2648.83 595.809ZM1994.38 208.75C1993.99 216.244 1996.17 223.975 2000.97 231.786C2018.38 260.072 2036.06 296.951 2049.46 332.962C2066.17 377.848 2075.44 419.155 2076.25 452.42C2078 485.65 2095.13 525.083 2123.24 560.594C2150.12 594.558 2183.01 619.63 2211.2 627.646C2228.77 632.625 2250.79 640.187 2276.28 648.942C2335.32 669.219 2416.18 696.988 2524.98 722.184C2559.5 730.928 2587.34 725.972 2607.77 707.45C2628.95 688.243 2641.87 655.245 2646.19 609.371C2649.99 568.836 2646.72 519.635 2636.7 467.081C2627.35 418.011 2612.32 367.819 2594.35 325.747C2575.6 281.846 2554.87 248.916 2534.37 230.507C2511.39 209.386 2485.78 192.735 2456.06 179.59C2429.36 167.78 2399.9 159.084 2366.03 153.012C2304.34 141.955 2237.26 141.324 2162.27 141.65C2091.26 141.795 2031.62 157.816 2006.64 183.462C1998.95 191.351 1994.85 199.877 1994.38 208.741L1994.38 208.75Z" fill="#343434" fill-opacity="0.07"/>
<path d="M2615.52 586.221C2615.4 588.543 2615.25 590.831 2615.07 593.096C2611.93 634.147 2600.96 663.719 2582.48 680.989C2564.83 697.489 2540.66 702.177 2510.65 694.915C2414.61 675.001 2335.84 649.747 2278.32 631.308C2255.51 623.997 2235.82 617.68 2219.57 613.145C2191.04 605.142 2159.95 582.71 2134.27 551.606C2108.04 519.848 2091.64 483.685 2089.26 452.386C2086.96 390.48 2054.87 306.838 2026.03 255.317C2017.37 239.803 2019.85 224.621 2033.21 211.414C2056.55 188.328 2110.35 173.875 2173.63 173.7C2237.67 173.305 2299.83 173.8 2356.43 184.031C2386.94 189.546 2413.54 197.411 2437.73 208.064C2464.6 219.901 2487.81 234.848 2508.69 253.755C2527.75 270.466 2547.1 300.148 2564.64 339.581C2581.34 377.118 2595.52 422.015 2604.58 465.999C2613.62 509.928 2617.38 551.306 2615.53 586.222L2615.52 586.221ZM2022.54 235.868C2022.21 242.101 2023.84 248.518 2027.46 254.997C2056.34 306.597 2088.49 390.381 2090.79 452.391C2093.15 483.523 2109.48 519.519 2135.6 551.142C2161.11 582.038 2191.92 604.292 2220.11 612.201C2236.39 616.747 2256.11 623.069 2278.93 630.386C2336.4 648.814 2415.12 674.046 2511.08 693.947C2540.42 701.043 2564 696.472 2581.23 680.369C2599.55 663.252 2610.42 633.855 2613.55 592.997C2616.31 556.761 2612.7 512.878 2603.06 466.094C2594.02 422.164 2579.85 377.323 2563.18 339.832C2545.69 300.519 2526.43 270.959 2507.49 254.344C2486.72 235.533 2463.64 220.674 2436.93 208.909C2412.89 198.317 2386.45 190.502 2356.1 185.014C2299.69 174.815 2237.64 174.325 2173.72 174.718C2110.92 174.891 2057.58 189.175 2034.5 212.005C2027 219.423 2023 227.477 2022.56 235.865L2022.54 235.868Z" fill="#343434" fill-opacity="0.07"/>
<path d="M2582.39 576.463L2582.38 576.719C2580.42 612.737 2571.53 638.694 2555.93 653.867C2541.5 667.918 2521.61 672.199 2496.82 666.593C2411.88 651.889 2333.11 628.436 2275.59 611.312C2257.58 605.949 2242.03 601.317 2228.53 597.603C2200.43 589.835 2170.62 569.606 2146.75 542.115C2122.53 514.228 2106.92 481.507 2103.92 452.349C2102.5 425.577 2095.89 393.75 2084.27 357.735C2075.53 330.644 2063.99 301.747 2052.6 278.447C2045.97 264.81 2048.94 251.496 2061.2 239.933C2082.63 219.713 2130.09 207.029 2185.06 206.831C2238.61 206.377 2295.18 206.723 2346.47 216.095C2373.44 221.025 2397.01 228.003 2418.53 237.434C2442.38 247.885 2463.04 261.03 2481.69 277.617C2516.4 307.175 2552.24 382.493 2570.86 465.021C2580.11 505.985 2584.09 544.511 2582.39 576.463ZM2050.6 263.04C2050.34 267.992 2051.44 273.072 2053.93 278.194C2065.34 301.522 2076.9 330.46 2085.65 357.578C2097.28 393.644 2103.9 425.53 2105.31 452.343C2108.3 481.342 2123.84 513.905 2147.95 541.67C2171.66 568.977 2201.21 589.048 2229.01 596.737C2242.52 600.456 2258.09 605.089 2276.11 610.457C2333.57 627.57 2412.27 651 2497.16 665.692C2521.34 671.158 2540.69 666.987 2554.75 653.309C2570.19 638.276 2579.01 612.481 2580.96 576.639L2580.97 576.383C2582.67 544.49 2578.69 506.026 2569.45 465.117C2550.86 382.739 2515.14 307.612 2480.57 278.165C2462.01 261.665 2441.47 248.598 2417.77 238.209C2396.39 228.839 2372.95 221.9 2346.14 216.996C2295.03 207.656 2238.57 207.316 2185.12 207.766C2130.58 207.964 2083.53 220.503 2062.34 240.494C2054.95 247.462 2051.01 255.087 2050.59 263.03L2050.6 263.04Z" fill="#343434" fill-opacity="0.07"/>
<path d="M2549.54 566.628C2548.06 594.394 2541.33 614.623 2529.5 626.808C2518.26 638.394 2502.63 642.258 2483.05 638.293C2407.31 629.132 2324.49 606.162 2264.02 589.389C2254.52 586.758 2245.57 584.273 2237.5 582.083C2209.37 574.421 2181.58 556.862 2159.23 532.64C2136.7 508.215 2122.26 479.695 2118.57 452.333C2117.2 433.479 2110.62 381.085 2079.18 301.593C2074.56 289.816 2078.04 278.343 2089.24 268.417C2108.79 251.104 2149.89 240.207 2196.5 239.978C2240.14 239.478 2290.55 239.658 2336.51 248.175C2385.08 257.173 2423.73 274.612 2454.68 301.49C2470.67 314.616 2487.08 337.548 2502.13 367.794C2516.47 396.601 2528.61 429.897 2537.22 464.082C2546.12 499.385 2550.46 532.689 2549.78 560.395C2549.73 562.513 2549.65 564.594 2549.54 566.632L2549.54 566.628ZM2078.51 290.319C2078.32 293.956 2078.95 297.668 2080.42 301.407C2085.45 314.125 2095.17 339.935 2103.74 369.894C2112.74 401.348 2118.16 429.073 2119.85 452.307C2123.52 479.519 2137.89 507.9 2160.32 532.207C2182.51 556.263 2210.07 573.693 2237.93 581.282C2246 583.472 2254.97 585.958 2264.46 588.589C2324.89 605.351 2407.65 628.304 2483.26 637.445L2483.33 637.458C2502.33 641.315 2517.5 637.566 2528.42 626.313C2540.81 613.546 2547.76 590.731 2548.5 560.336C2549.17 532.679 2544.84 499.434 2535.95 464.181C2527.35 430.042 2515.23 396.787 2500.92 368.022C2485.92 337.878 2469.58 315.049 2453.7 301.996C2422.92 275.272 2384.5 257.939 2336.23 248.993C2290.44 240.508 2240.14 240.329 2196.59 240.829C2150.34 241.055 2109.62 251.828 2090.3 268.946C2082.89 275.504 2078.93 282.754 2078.53 290.311L2078.51 290.319Z" fill="#343434" fill-opacity="0.07"/>
<path d="M2517.15 555.973C2516.1 575.689 2511.38 590.711 2503.29 599.812C2495.16 608.953 2483.72 612.373 2469.25 609.982C2400.92 607.799 2292.69 578.896 2246.45 566.555C2188.73 551.068 2142.17 504.087 2133.23 452.311C2129.17 411.313 2115.98 362.543 2108.1 333.404C2107.26 330.311 2106.48 327.406 2105.76 324.724C2103.13 314.773 2107.17 305.113 2117.4 296.801C2135.08 282.446 2169.77 273.373 2207.94 273.118C2246.73 272.513 2287.95 272.961 2326.55 280.248C2367.74 288.025 2400.82 302.777 2427.69 325.357C2456.12 347.656 2485.95 401.747 2503.69 463.16C2512.22 492.688 2516.94 520.677 2517.35 544.1C2517.42 548.224 2517.36 552.188 2517.16 555.977L2517.15 555.973ZM2106.18 317.754C2106.06 320.021 2106.3 322.312 2106.91 324.623C2107.62 327.304 2108.41 330.205 2109.25 333.299C2117.13 362.451 2130.34 411.249 2134.39 452.274C2143.28 503.75 2189.52 550.452 2246.85 565.833C2293.03 578.167 2401.19 607.048 2469.32 609.207L2469.38 609.21L2469.44 609.218C2483.39 611.536 2494.44 608.23 2502.29 599.395C2511.83 588.659 2516.64 569.526 2516.2 544.07C2515.79 520.692 2511.08 492.749 2502.56 463.271C2484.86 401.99 2455.13 348.044 2426.82 325.833C2367.17 275.693 2286.03 272.683 2208.03 273.893C2170.17 274.147 2135.81 283.119 2118.34 297.31C2110.69 303.517 2106.58 310.481 2106.2 317.75L2106.18 317.754Z" fill="#343434" fill-opacity="0.07"/>
<path d="M2485.57 545.008C2484.93 557.059 2482.26 566.607 2477.52 572.875C2472.41 579.623 2465.01 582.583 2455.51 581.673C2436.73 584.563 2405.09 582.154 2361.47 574.518C2329.69 568.954 2291.04 560.394 2255.43 551.027C2198.3 535.941 2158.1 499.03 2147.9 452.288C2145.7 435.978 2142.91 418.976 2140.21 402.532C2136.72 381.264 2133.44 361.177 2132.35 347.854C2131.5 336.642 2140.49 326.147 2157.65 318.303C2173.92 310.866 2196.41 306.48 2219.38 306.257C2271.96 305.126 2298.96 308.905 2316.6 312.321C2350.4 318.866 2377.91 330.939 2400.69 349.223C2426.12 367.998 2452.82 411.287 2470.34 462.192C2481.54 494.709 2486.71 523.752 2485.57 545.008L2485.57 545.008ZM2133.36 345.45C2133.32 346.244 2133.33 347.042 2133.39 347.847C2134.47 361.152 2137.76 381.225 2141.25 402.483C2143.94 418.932 2146.73 435.938 2148.93 452.235C2159.07 498.694 2199.01 535.393 2255.77 550.379C2291.35 559.735 2329.95 568.288 2361.69 573.845C2405.22 581.467 2436.72 583.865 2455.32 580.978L2455.42 580.965L2455.51 580.97C2464.58 581.867 2471.67 579.034 2476.58 572.542C2489.6 555.358 2486.81 513.122 2469.32 462.322C2451.84 411.532 2425.24 368.365 2399.92 349.668C2377.27 331.491 2349.94 319.499 2316.35 312.992C2282.91 306.515 2247 306.364 2219.45 306.959C2196.67 307.174 2174.38 311.521 2158.27 318.885C2142.64 326.032 2133.9 335.392 2133.37 345.45L2133.36 345.45Z" fill="#343434" fill-opacity="0.07"/>
<path d="M2455.52 533.369C2455.26 538.353 2454.35 542.524 2452.79 545.714C2450.48 550.378 2446.81 552.943 2441.85 553.332C2430.94 561.801 2395.55 559.323 2367.75 555.744C2336.39 551.706 2297.75 544.138 2264.38 535.499C2235.67 528.04 2213.54 517.806 2196.7 504.207C2179.51 490.319 2168.34 473.33 2162.55 452.264C2156.56 420.511 2155.14 388.605 2158.95 370.967C2160.85 362.383 2169.72 354.399 2183.9 348.485C2197.17 342.955 2214.27 339.642 2230.81 339.401C2274.53 338.05 2330.27 340.657 2373.68 373.088C2395.95 388.214 2419.67 420.979 2437.12 460.718C2449.87 489.76 2456.43 516.311 2455.52 533.374L2455.52 533.369ZM2157.99 386.447C2157.04 404.335 2158.95 428.306 2163.46 452.191C2169.21 473.129 2180.31 490.02 2197.4 503.821C2214.12 517.333 2236.13 527.506 2264.67 534.92C2327.04 551.073 2423.05 567.307 2441.24 552.831L2441.35 552.742L2441.53 552.729C2446.2 552.415 2449.69 549.98 2451.9 545.496C2458.8 531.491 2452.65 498.27 2436.22 460.859C2418.82 421.218 2395.19 388.552 2373.01 373.489C2329.86 341.252 2274.38 338.663 2230.87 340.008L2230.86 340.007C2214.47 340.247 2197.53 343.528 2184.4 349.006C2170.43 354.828 2161.71 362.667 2159.84 371.078C2158.9 375.409 2158.29 380.604 2157.98 386.446L2157.99 386.447Z" fill="#343434" fill-opacity="0.07"/>
<path d="M2429.69 519.951C2429.57 522.101 2429.07 523.754 2428.16 524.827C2428.75 528.456 2426.92 531.371 2422.76 533.495C2410.57 539.713 2381.09 538.022 2358.49 535.509C2331.61 532.52 2299.78 526.705 2273.33 519.961C2243.42 512.321 2223.63 504.536 2209.19 494.716C2193.78 484.246 2183.62 470.741 2177.21 452.227C2171.41 431.165 2174.69 408.334 2185.56 394.058C2195.41 381.268 2222.11 373.067 2242.23 372.531C2283.86 370.528 2319 378.743 2346.65 396.939C2358 403.757 2369.67 414.059 2381.32 427.544C2391.4 439.221 2401.15 452.974 2409.5 467.328C2422.59 489.795 2430.2 510.081 2429.67 519.945L2429.69 519.951ZM2427.34 524.693L2427.4 524.62C2428.32 523.597 2428.81 521.993 2428.92 519.896C2430.08 498.182 2390.07 423.732 2346.13 397.33C2318.64 379.242 2283.72 371.083 2242.33 373.076L2242.32 373.075C2222.41 373.605 2196.01 381.7 2186.29 394.331C2175.49 408.512 2172.23 431.213 2177.99 452.156C2184.36 470.556 2194.45 483.971 2209.75 494.367C2224.11 504.124 2243.79 511.868 2273.59 519.479C2299.99 526.212 2331.76 532.01 2358.59 534.996C2381.03 537.492 2410.29 539.185 2422.26 533.082C2426.23 531.055 2427.95 528.265 2427.35 524.788L2427.33 524.702L2427.34 524.693Z" fill="#343434" fill-opacity="0.07"/>
<path d="M2418.77 506.426C2418.66 508.577 2417.6 510.452 2415.58 512.038C2410.54 516.016 2396.83 520.145 2360.18 517.248C2335.61 515.305 2306.5 510.517 2282.3 504.442C2253.7 497.264 2235.34 492.387 2221.7 485.249C2207.59 477.865 2198.94 468.295 2191.88 452.214C2187.99 443.352 2189.47 435.222 2196.28 428.056C2211 412.562 2245.83 406.383 2253.66 405.684C2268.3 404.378 2284.35 406.836 2301.4 412.994C2316.07 418.296 2331.51 426.336 2347.3 436.898C2375.83 455.987 2400.56 480.142 2414.19 496.38C2417.4 500.202 2418.93 503.562 2418.78 506.427L2418.77 506.426ZM2190.46 441.889C2190.29 445.167 2190.97 448.572 2192.53 452.104C2199.54 468.08 2208.11 477.582 2222.1 484.901C2235.67 491.995 2253.97 496.86 2282.51 504.021C2326.63 515.097 2399.23 524.221 2415.06 511.74C2419.56 508.197 2419.07 503.101 2413.61 496.592C2400 480.382 2375.32 456.27 2346.83 437.215C2331.09 426.687 2315.71 418.672 2301.09 413.396C2284.18 407.286 2268.26 404.844 2253.78 406.136C2246.01 406.83 2211.44 412.959 2196.85 428.316C2192.86 432.521 2190.73 437.063 2190.47 441.899L2190.46 441.889Z" fill="#343434" fill-opacity="0.07"/>
<path d="M-67.6623 734.543C-49.0167 727.847 -29.9434 721.681 -10.4695 716.07C99.0774 684.467 179.97 693.653 236.842 744.146C286.119 787.901 309.931 855.793 330.945 915.693C344.966 955.68 358.213 993.447 377.068 1017.56C439.827 1097.83 480.246 1106.22 504.397 1111.22C518.385 1114.12 527.622 1116.04 532.043 1130.59C536.379 1144.85 491.564 1181.12 390.998 1244.72C347.506 1272.23 307.519 1276.29 275.391 1279.55C259.296 1281.19 245.373 1282.6 234.174 1286.66C203.332 1297.83 196.109 1304.23 180.283 1318.26C167.087 1329.95 147.145 1347.62 101.754 1378.06C61.867 1404.8 -5.75645 1431.68 -74.7388 1448.21C-113.988 1457.61 -152.345 1463.5 -188.736 1465.71C-229.479 1468.19 -266.826 1465.96 -299.74 1459.07C-360.713 1446.32 -405.579 1417.97 -433.097 1374.83C-460.204 1332.33 -475.852 1284.51 -479.606 1232.71C-483.338 1181.26 -475.154 1128.5 -455.286 1075.89C-426.363 999.313 -373.408 926.934 -302.139 866.574C-264.145 834.399 -220.899 805.526 -173.597 780.774C-140.361 763.384 -104.898 747.907 -67.6773 734.541L-67.6623 734.543ZM349.091 1263C362.241 1258.27 375.901 1251.87 389.919 1243C435.658 1214.08 469.226 1191.22 492.549 1173.12C526.191 1147.02 531.542 1135.91 530.102 1131.18C526.032 1117.78 518.203 1116.16 503.988 1113.21C479.564 1108.14 438.686 1099.66 375.466 1018.81C356.408 994.434 343.107 956.513 329.028 916.367C308.097 856.696 284.379 789.066 235.495 745.666C179.183 695.67 98.9108 686.628 -9.9061 718.019C-68.1188 734.815 -122.872 756.535 -172.634 782.573C-219.803 807.256 -262.929 836.042 -300.805 868.124C-371.809 928.259 -424.565 1000.35 -453.367 1076.6C-473.128 1128.93 -481.272 1181.4 -477.56 1232.56C-473.832 1284.02 -458.286 1331.52 -431.367 1373.74C-404.158 1416.4 -359.732 1444.44 -299.312 1457.08C-266.577 1463.92 -229.409 1466.14 -188.848 1463.68C-152.569 1461.48 -114.334 1455.61 -75.1978 1446.23C-6.43496 1429.75 60.9404 1402.98 100.635 1376.36C145.91 1346.01 165.787 1328.39 178.943 1316.73C194.965 1302.53 202.282 1296.05 233.487 1284.75L233.647 1284.69C245.076 1280.59 259.04 1279.17 275.19 1277.53C296.723 1275.35 321.81 1272.8 349.086 1263.01L349.091 1263Z" fill="#343434" fill-opacity="0.07"/>
<path d="M-64.6466 772.782C-49.5708 767.369 -34.1865 762.333 -18.5102 757.69C80.1044 728.25 153.548 735.009 206.011 778.376C251.584 816.043 274.806 875.819 295.291 928.554C309.561 965.285 323.043 999.982 342.073 1021.99C401.751 1092.91 440.693 1101.41 463.963 1106.49C478.025 1109.55 487.316 1111.58 491.799 1125.64C494.461 1133.54 483.772 1148.04 460.003 1168.73C438.619 1187.34 407.49 1210.21 369.974 1234.88C330.868 1260.81 294.821 1265.65 265.855 1269.54C251.855 1271.41 239.758 1273.03 229.611 1276.66C197.42 1288.12 190.359 1293.53 169.406 1309.53C155.325 1320.28 136.043 1335.01 99.4343 1359.14C61.9393 1383.86 -1.17922 1408.86 -65.2915 1424.38C-101.958 1433.26 -137.706 1438.86 -171.542 1441.05C-209.507 1443.51 -244.229 1441.55 -274.747 1435.24C-329.806 1423.87 -370.508 1398.6 -395.723 1360.15C-420.988 1321.42 -435.797 1277.76 -439.741 1230.38C-443.664 1183.3 -436.66 1134.99 -418.932 1086.78C-393.318 1017.13 -345.893 951.151 -281.787 895.997C-247.607 866.587 -208.626 840.146 -165.932 817.409C-134.276 800.55 -100.348 785.61 -64.6466 772.782ZM327.178 1254.29C340.552 1249.48 354.526 1242.82 368.92 1233.29C448.273 1181.11 494.666 1140.1 489.983 1126.24C485.829 1113.21 477.444 1111.38 463.551 1108.35C440.046 1103.21 400.707 1094.63 340.616 1023.23C321.379 1000.98 307.836 966.135 293.509 929.245C273.109 876.724 249.984 817.2 204.792 779.85C152.861 736.925 79.9968 730.275 -17.9666 759.524C-70.647 775.131 -120.13 795.175 -165.039 819.096C-207.609 841.775 -246.477 868.132 -280.545 897.451C-344.403 952.393 -391.64 1018.09 -417.14 1087.44C-434.77 1135.38 -441.735 1183.42 -437.84 1230.22C-433.925 1277.28 -419.217 1320.64 -394.127 1359.1C-369.208 1397.11 -328.914 1422.1 -274.368 1433.37C-234.056 1441.7 -165.137 1446.58 -65.7435 1422.52C-1.8316 1407.04 61.0556 1382.14 98.3841 1357.53C134.934 1333.44 154.188 1318.74 168.246 1308.01C188.805 1292.31 196.518 1286.43 228.97 1274.86C239.308 1271.16 251.495 1269.53 265.598 1267.63C283.681 1265.21 304.546 1262.41 327.176 1254.28L327.178 1254.29Z" fill="#343434" fill-opacity="0.07"/>
<path d="M-62.1707 811.137C-50.5308 806.957 -38.6668 803.02 -26.5555 799.311C61.208 772.019 127.208 776.428 175.212 812.79C217.046 844.473 239.613 896.172 259.521 941.789C274.063 975.111 287.807 1006.59 307.059 1026.41C363.537 1087.99 400.967 1096.55 423.333 1101.66C437.563 1104.91 446.971 1107.06 451.541 1120.67C458.361 1139.04 403.136 1187.64 348.93 1225.01C314.034 1249.54 281.783 1255.17 255.863 1259.68C244.111 1261.73 233.961 1263.5 225.031 1266.65C188.391 1279.47 182.3 1283.57 148.471 1306.28C135.732 1314.84 119.879 1325.48 97.1012 1340.19C73.8125 1355.24 39.7158 1370.77 1.10345 1383.91C-42.3514 1398.7 -87.7164 1409.14 -130.086 1414.12C-180.224 1420.02 -224.464 1418.21 -261.574 1408.76C-304.8 1397.75 -337.37 1376.45 -358.372 1345.46C-381.803 1310.49 -395.781 1270.99 -399.915 1228.03C-404.03 1185.33 -398.21 1141.46 -382.624 1097.64C-360.304 1034.91 -318.407 975.342 -261.461 925.401C-206.671 877.349 -139.749 838.996 -62.1645 811.135L-62.1707 811.137ZM304.617 1246.07C318.367 1241.13 332.894 1234.11 347.909 1223.55C412.464 1179.05 455.337 1136.03 449.856 1121.27C445.596 1108.58 437.065 1106.63 422.936 1103.4C400.371 1098.24 362.599 1089.61 305.763 1027.63C286.303 1007.59 272.502 975.974 257.889 942.497C238.068 897.08 215.602 845.603 174.137 814.205C126.628 778.22 61.1506 773.904 -26.0323 801.009C-118.667 829.345 -197.473 871.642 -260.29 926.736C-317.006 976.48 -358.729 1035.79 -380.95 1098.24C-396.45 1141.81 -402.235 1185.42 -398.15 1227.86C-394.038 1270.51 -380.164 1309.74 -356.896 1344.46C-336.151 1375.07 -303.929 1396.12 -261.138 1407.03C-224.241 1416.42 -180.223 1418.22 -130.298 1412.35C-88.0526 1407.39 -42.8132 1396.97 0.52464 1382.22C39.0072 1369.12 72.9601 1353.67 96.1305 1338.69C118.898 1323.99 134.745 1313.35 147.477 1304.8C181.469 1281.98 187.585 1277.87 224.446 1264.96C233.509 1261.76 243.731 1259.99 255.561 1257.92C270.128 1255.38 286.708 1252.49 304.627 1246.06L304.617 1246.07Z" fill="#343434" fill-opacity="0.07"/>
<path d="M-59.0689 849.214C-51.0433 846.332 -42.8863 843.576 -34.6065 840.941C42.4065 815.796 100.992 817.916 144.49 847.44C182.534 873.259 203.438 915.078 223.649 955.526C238.501 985.24 252.524 1013.31 272.045 1030.85C325.148 1083.14 359.631 1091.34 382.452 1096.78C397.506 1100.36 406.595 1102.52 411.278 1115.73C418.005 1132.32 381.378 1176.01 327.885 1215.17C296.884 1238.62 268.144 1245.06 245.044 1250.24C236.211 1252.21 227.865 1254.08 220.449 1256.66L216.687 1257.94C173.434 1272.75 169.912 1273.96 94.7566 1321.28C73.6518 1334.59 41.7299 1349.03 7.20172 1360.89C-32.5173 1374.54 -73.8628 1384.35 -112.364 1389.29C-158.111 1395.14 -198.477 1394.08 -232.333 1386.12C-271.832 1376.82 -301.67 1358.21 -321.024 1330.79C-342.635 1299.58 -355.784 1264.23 -360.125 1225.69C-364.444 1187.35 -359.814 1147.92 -346.363 1108.48C-327.325 1052.65 -290.945 999.512 -241.152 954.781C-191.63 910.297 -130.466 874.847 -59.0712 849.208L-59.0689 849.214ZM280.932 1238.73C295.333 1233.56 310.816 1226.01 326.897 1213.84C378.929 1175.75 416.081 1132.01 409.727 1116.32C405.337 1103.93 396.578 1101.85 382.07 1098.4C360.469 1093.26 324.317 1084.65 270.911 1032.07C251.187 1014.34 237.092 986.127 222.169 956.274C202.057 916.02 181.251 874.396 143.566 848.816C100.519 819.605 42.4081 817.545 -34.088 842.525C-115.829 868.511 -185.121 906.7 -240.035 956.027C-289.618 1000.56 -325.839 1053.47 -344.787 1109.02C-358.157 1148.22 -362.759 1187.41 -358.471 1225.5C-354.158 1263.77 -341.106 1298.87 -319.659 1329.83C-300.551 1356.91 -271.047 1375.3 -231.957 1384.5C-198.291 1392.41 -158.128 1393.47 -112.576 1387.63C-74.1854 1382.71 -32.9529 1372.92 6.66412 1359.32C41.0799 1347.5 72.8701 1333.12 93.8693 1319.87C169.181 1272.45 172.73 1271.23 216.143 1256.37L219.899 1255.09C227.406 1252.48 235.793 1250.61 244.677 1248.61C255.607 1246.16 267.815 1243.43 280.921 1238.72L280.932 1238.73Z" fill="#343434" fill-opacity="0.07"/>
<path d="M-55.9479 887.164C-51.5559 885.587 -47.1264 884.054 -42.6467 882.56C106.128 830.976 149.46 904.768 187.693 969.87C202.869 995.718 217.209 1020.14 237.032 1035.28C286.518 1078.31 319.419 1086.4 341.189 1091.76C356.778 1095.59 366.187 1097.9 371.023 1110.76C374.527 1118.74 370.008 1133.29 358.607 1150.64C346.498 1169.06 328.117 1188.48 306.857 1205.31C279.045 1228.48 254.26 1235.5 232.387 1241.68C226.587 1243.33 221.106 1244.88 215.876 1246.65C207.993 1249.29 201.071 1251.43 194.966 1253.33C166.761 1262.08 149.739 1267.37 92.4267 1302.34C55.8989 1324.69 -18.224 1353.66 -94.6273 1364.43C-135.981 1370.25 -172.47 1369.93 -203.084 1363.46C-238.854 1355.89 -265.964 1339.96 -283.666 1316.1C-303.466 1288.66 -315.811 1257.44 -320.361 1223.31C-324.892 1189.33 -321.461 1154.32 -310.152 1119.25C-294.385 1070.35 -263.502 1023.63 -220.85 984.121C-176.635 943.177 -121.213 910.594 -55.9502 887.158L-55.9479 887.164ZM255.501 1232.92C271.042 1227.34 287.83 1219.16 305.889 1204.12C351.575 1167.95 376.128 1126.2 369.605 1111.35C365.034 1099.2 355.927 1096.96 340.834 1093.25C318.915 1087.87 285.801 1079.72 236.072 1036.47C216.042 1021.18 201.628 996.632 186.376 970.653C167.015 937.679 146.991 903.583 113.124 883.684C74.5965 861.047 23.8045 861.151 -42.1375 884.018C-112.99 907.641 -172.759 941.706 -219.787 985.257C-262.247 1024.58 -292.98 1071.08 -308.672 1119.73C-319.908 1154.57 -323.322 1189.36 -318.821 1223.11C-314.305 1256.99 -302.05 1287.97 -282.408 1315.19C-259.694 1345.82 -208.709 1378.96 -94.8273 1362.91C-18.6353 1352.17 55.2371 1323.31 91.6402 1301.04C149.111 1265.96 166.203 1260.65 194.518 1251.86C200.617 1249.97 207.526 1247.83 215.397 1245.19C220.662 1243.4 226.165 1241.85 231.984 1240.2C239.483 1238.08 247.329 1235.86 255.52 1232.92L255.501 1232.92Z" fill="#343434" fill-opacity="0.07"/>
<path d="M-45.9406 922.448C7.75223 903.166 50.1294 901.593 83.4661 917.631C113.791 932.217 133.051 959.074 151.677 985.05C167.194 1006.7 181.853 1027.14 202.012 1039.73C247.478 1073.59 278.658 1081.4 299.297 1086.56C315.762 1090.69 325.7 1093.17 330.765 1105.81C338.651 1122.46 321.117 1164.36 285.821 1195.45C259.097 1220.87 236.076 1228.47 213.821 1235.82L211.293 1236.65C200.547 1240.14 191.333 1242.47 182.427 1244.73C158.548 1250.78 135.996 1256.5 90.0866 1283.42C56.67 1303.1 -9.84112 1329.07 -76.8944 1339.58C-133.406 1348.45 -208.678 1349.02 -246.306 1301.41C-282.31 1254.08 -292.415 1191.59 -274.025 1129.96C-261.5 1087.98 -236.096 1047.68 -200.57 1013.42C-161.725 975.959 -112.018 946.198 -52.8053 924.934C-52.1041 924.683 -51.4031 924.431 -50.7019 924.179C-49.1087 923.585 -47.5197 923 -45.9452 922.435L-45.9406 922.448ZM226.724 1229.94C244.758 1223.47 263.641 1214.61 284.865 1194.41C322.599 1161.17 336.272 1120.75 329.467 1106.39C324.65 1094.38 314.98 1091.96 298.95 1087.94C278.207 1082.75 246.854 1074.9 201.21 1040.9C180.858 1028.19 166.123 1007.64 150.52 985.876C132.004 960.047 112.849 933.339 82.8441 918.905C48.8923 902.577 5.38263 904.744 -50.2211 925.518C-50.916 925.767 -51.6234 926.021 -52.3182 926.271C-111.353 947.471 -160.889 977.126 -199.589 1014.45C-234.945 1048.54 -260.217 1088.63 -272.672 1130.38C-281.773 1160.89 -283.992 1191.28 -279.261 1220.71C-274.515 1250.22 -263.054 1277.08 -245.194 1300.56C-208.001 1347.62 -133.264 1347 -77.1255 1338.2C-10.2516 1327.7 56.0537 1301.82 89.3583 1282.22C135.441 1255.19 158.085 1249.45 182.068 1243.37C190.952 1241.11 200.141 1238.79 210.848 1235.31L213.37 1234.48C217.784 1233.03 222.224 1231.56 226.718 1229.95L226.724 1229.94Z" fill="#343434" fill-opacity="0.07"/>
<path d="M-44.5628 960.332C-5.2892 946.228 26.8524 943.948 53.377 953.321C79.7785 962.652 98.0859 982.309 115.785 1001.31C130.907 1017.55 146.539 1034.35 166.992 1044.17C207.763 1068.96 236.956 1076.25 256.276 1081.07C274.251 1085.55 285.096 1088.26 290.506 1100.86C298.425 1116.44 292.367 1157.23 264.792 1185.59C245.998 1207.34 228.619 1219.63 206.711 1226.66C195.046 1230.31 184.532 1232.29 173.408 1234.4C149.884 1238.86 125.564 1243.46 87.7488 1264.51C57.2523 1281.57 -1.73462 1304.57 -59.1656 1314.74C-108.93 1323.56 -175.313 1325.86 -208.948 1286.75C-241.531 1246.83 -252.135 1193.56 -238.045 1140.57C-228.727 1105.51 -208.768 1071.65 -180.331 1042.64C-148.875 1010.56 -107.97 984.707 -58.75 965.815C-53.924 963.823 -49.1907 961.994 -44.5628 960.332ZM210.186 1224.11C230.061 1216.97 246.308 1205 263.837 1184.71C291.038 1156.73 297.105 1116.69 289.336 1101.41C284.161 1089.37 274.146 1086.87 255.964 1082.33C236.566 1077.49 207.255 1070.18 166.371 1045.31C145.76 1035.41 130.04 1018.53 114.835 1002.2C97.2411 983.303 79.0479 963.764 52.9422 954.535C23.6075 944.17 -12.7667 948.251 -58.279 967.006C-107.34 985.84 -148.089 1011.59 -179.419 1043.54C-207.699 1072.39 -227.547 1106.05 -236.806 1140.89C-250.787 1193.48 -240.27 1246.34 -207.966 1285.91C-174.739 1324.55 -108.834 1322.22 -59.4006 1313.46C-2.11901 1303.31 56.698 1280.39 87.1035 1263.37C125.099 1242.22 149.525 1237.6 173.152 1233.13C184.244 1231.03 194.722 1229.04 206.31 1225.42C207.614 1225 208.902 1224.56 210.17 1224.11L210.186 1224.11Z" fill="#343434" fill-opacity="0.07"/>
<path d="M-42.8286 997.426C20.4451 974.704 49.7516 996.313 80.5922 1019.05C95.8022 1030.26 111.531 1041.85 131.967 1048.62C166.754 1064.57 192.285 1070.64 210.923 1075.06C232.427 1080.17 244.275 1082.98 250.251 1095.9C254.831 1104.32 257.476 1118.34 257.141 1132.44C256.734 1149.48 251.986 1164.84 243.78 1175.7C231.518 1195.4 220.652 1210.95 202.138 1216.65C190.424 1220.14 178.395 1221.66 165.661 1223.25C142.675 1226.14 116.626 1229.41 85.4101 1245.57C63.8229 1256.82 12.8043 1278.82 -41.429 1289.88C-69.6472 1295.63 -94.507 1297.53 -115.326 1295.51C-139.918 1293.12 -158.842 1285.23 -171.575 1272.06C-200.877 1239.56 -212.08 1195.44 -202.327 1150.99C-196.151 1122.86 -181.582 1095.46 -160.181 1071.72C-136.514 1045.48 -105.098 1023.85 -66.8014 1007.42C-58.2939 1003.42 -50.3233 1000.1 -42.8268 997.411L-42.8286 997.426ZM203.819 1214.86C220.731 1208.79 231.114 1193.83 242.816 1175.03C261.584 1150.22 256.948 1110.68 249.209 1096.43C243.456 1083.99 231.804 1081.22 210.656 1076.2C191.971 1071.76 166.37 1065.69 131.544 1049.71C110.994 1042.9 95.1866 1031.25 79.9004 1019.99C62.476 1007.14 46.0151 995.006 23.7637 990.619C-1.3071 985.675 -29.9317 991.356 -66.3224 1008.5C-104.481 1024.86 -135.768 1046.4 -159.314 1072.51C-180.577 1096.09 -195.059 1123.32 -201.186 1151.25C-210.858 1195.32 -199.754 1239.06 -170.724 1271.26C-158.208 1284.21 -139.52 1291.98 -115.212 1294.34C-94.5127 1296.35 -69.7641 1294.47 -41.6611 1288.74C12.4465 1277.7 63.3335 1255.76 84.8721 1244.53C116.27 1228.28 142.434 1224.99 165.516 1222.09C178.201 1220.5 190.181 1218.99 201.806 1215.53C202.486 1215.32 203.16 1215.09 203.823 1214.85L203.819 1214.86Z" fill="#343434" fill-opacity="0.07"/>
<path d="M-40.5376 1032.8C-2.32224 1019.08 20.7833 1027.91 48.4905 1038.49C62.9525 1044.01 77.9074 1049.73 96.9518 1053.1C122.775 1060.68 143.116 1064.8 159.455 1068.11C187.495 1073.79 202.939 1076.91 209.992 1090.96C218.845 1106.28 232.157 1145.21 222.779 1165.75C222.333 1167.25 221.891 1168.77 221.454 1170.28C216.867 1186.08 212.112 1202.42 197.557 1206.66C186.194 1209.85 172.578 1210.73 158.16 1211.66C134.838 1213.17 108.399 1214.88 83.0688 1226.66C55.689 1239.52 -83.4694 1301.41 -134.203 1257.41C-160.494 1232.33 -172.501 1197.27 -167.162 1161.2C-163.981 1139.68 -154.92 1119.3 -140.246 1100.62C-124.253 1080.27 -102.255 1062.92 -74.8573 1049.08C-62.0811 1041.77 -50.7688 1036.48 -40.5376 1032.8ZM198.563 1205.23C211.568 1200.56 216.077 1185.02 220.449 1169.98C220.894 1168.46 221.338 1166.93 221.788 1165.41L221.814 1165.35C231.067 1145.16 217.855 1106.65 209.075 1091.46C202.234 1077.84 186.962 1074.75 159.247 1069.14C142.887 1065.82 122.522 1061.7 96.7116 1054.11C77.6307 1050.74 62.6262 1045.01 48.1209 1039.47C13.2573 1026.15 -14.2835 1015.63 -74.3627 1049.99C-101.644 1063.78 -123.532 1081.03 -139.426 1101.26C-153.988 1119.79 -162.971 1140 -166.13 1161.35C-171.42 1197.08 -159.525 1231.81 -133.504 1256.63C-113.289 1274.16 -76.4251 1276.66 -23.9417 1264.03C22.2564 1252.91 65.9675 1233.53 82.6205 1225.72C108.131 1213.85 134.673 1212.13 158.089 1210.62C172.452 1209.69 186.012 1208.82 197.268 1205.65C197.711 1205.52 198.143 1205.38 198.563 1205.23Z" fill="#343434" fill-opacity="0.07"/>
<path d="M-36.1138 1063.06C-13.516 1054.94 7.23199 1055.73 35.9199 1056.79C44.0745 1057.1 52.5016 1057.42 61.9362 1057.58C68.9425 1058.35 75.4953 1059.06 81.67 1059.72C135.378 1065.5 159.895 1068.13 169.733 1086.01C177.708 1099.02 202.007 1138.65 201.726 1155.74C204.492 1172.96 205.962 1193.17 192.973 1196.66C182.107 1199.47 166.549 1199.57 150.079 1199.68C126.846 1199.83 100.526 1200.01 80.7154 1207.75C76.9533 1209.24 72.4711 1211.08 67.2886 1213.22C46.0406 1221.99 13.9285 1235.24 -17.1732 1243.32C-54.3852 1252.98 -81.1803 1252.8 -96.822 1242.75C-120.347 1225.47 -133.998 1198.68 -133.368 1171.06C-132.665 1140.43 -114.756 1111.9 -82.9378 1090.73C-65.0277 1076.65 -50.212 1068.13 -36.1115 1063.06L-36.1138 1063.06ZM193.677 1195.47C204.959 1191.42 203.439 1172.26 200.807 1155.85L200.799 1155.77C201.119 1138.96 176.894 1099.46 168.933 1086.47C159.312 1069 134.946 1066.38 81.5669 1060.64C75.3922 1059.98 68.8352 1059.27 61.878 1058.5C52.4735 1058.34 44.0401 1058.02 35.8833 1057.71C-10.4821 1055.98 -36.0227 1055.02 -82.4004 1091.46C-113.986 1112.48 -131.752 1140.75 -132.444 1171.06C-133.075 1198.39 -119.563 1224.89 -96.3022 1241.97C-80.915 1251.85 -54.3627 1252 -17.4149 1242.4C13.6273 1234.34 45.701 1221.11 66.9258 1212.35C72.1169 1210.22 76.5968 1208.36 80.3717 1206.87C100.348 1199.07 126.762 1198.9 150.066 1198.74C166.479 1198.63 181.979 1198.53 192.734 1195.75C193.055 1195.67 193.372 1195.57 193.678 1195.46L193.677 1195.47Z" fill="#343434" fill-opacity="0.07"/>
<path d="M-17.7889 1072.84C-4.64456 1068.12 10.1889 1064.56 26.9433 1062.08C87.3191 1056.52 117.979 1062.19 129.477 1081.07C135.026 1089.62 147.895 1105.24 159.248 1119.02C168.238 1129.92 176.732 1140.23 180.57 1145.77C184.429 1150.26 188.276 1157.1 190.824 1164.04C193.623 1171.64 194.435 1178.04 193.12 1182.08C192.31 1184.57 190.719 1186.11 188.384 1186.67C177.943 1189.05 159.489 1188.15 139.958 1187.19C116.749 1186.04 92.7416 1184.86 78.3544 1188.83C70.5336 1191.02 58.7151 1196 45.0318 1201.79C11.062 1216.13 -35.4666 1235.78 -59.3991 1228.08C-81.5672 1219.21 -98.4873 1201.27 -103.599 1181.25C-107.892 1164.42 -103.551 1147.53 -91.0465 1132.41C-77.8983 1112.13 -63.8688 1097.65 -46.9152 1086.89C-38.2727 1081.39 -28.6001 1076.73 -17.7889 1072.84ZM188.867 1185.69C190.55 1185.08 191.726 1183.79 192.36 1181.83C195.037 1173.59 187.765 1155.38 179.932 1146.25C176.085 1140.71 167.604 1130.42 158.625 1119.53C147.259 1105.73 134.377 1090.1 128.791 1081.5C117.463 1062.92 87.0363 1057.35 27.0303 1062.88C-3.38243 1067.39 -27.44 1075.47 -46.4967 1087.57C-63.3511 1098.27 -77.3008 1112.67 -90.4118 1132.9C-102.774 1147.85 -107.062 1164.49 -102.833 1181.06C-97.786 1200.84 -81.0484 1218.57 -59.1421 1227.33C-35.5182 1234.94 10.847 1215.35 44.7108 1201.05C58.4219 1195.27 70.2612 1190.26 78.1313 1188.07C92.6505 1184.07 116.716 1185.25 139.991 1186.4C159.471 1187.35 177.867 1188.26 188.201 1185.9C188.427 1185.84 188.649 1185.78 188.859 1185.7L188.867 1185.69Z" fill="#343434" fill-opacity="0.07"/>
<path d="M-12.9994 1068.27C-11.3548 1067.67 -9.6923 1067.11 -8.02707 1066.58C19.1294 1057.89 41.6909 1055.09 59.0205 1058.23C72.6302 1060.7 82.789 1066.73 89.2203 1076.12C99.7489 1091.51 141.706 1127.26 159.366 1135.9C165.946 1139.11 173.035 1145.81 178.813 1154.26C184.041 1161.91 187.068 1169.45 186.529 1173.48C186.287 1175.28 185.344 1176.38 183.815 1176.67C173.081 1178.7 147.24 1175.94 122.254 1173.28C102.88 1171.21 84.5773 1169.26 75.9838 1169.9C66.2354 1170.63 48.7418 1180.09 30.2242 1190.11C11.1457 1200.43 -8.58442 1211.1 -21.918 1213.37C-35.8705 1215.74 -53.6122 1213.31 -68.2268 1207.02C-85.3017 1199.67 -96.2747 1188.06 -99.1194 1174.3C-102.444 1158.21 -95.0908 1136.46 -79.4477 1116.14C-62.8978 1094.63 -39.4451 1077.77 -12.9971 1068.27L-12.9994 1068.27ZM184.154 1175.87C185.123 1175.52 185.679 1174.7 185.86 1173.39C186.915 1165.58 173.552 1143.58 159.071 1136.5C141.345 1127.84 99.2299 1091.95 88.6656 1076.5C82.3448 1067.25 72.3297 1061.33 58.905 1058.9C41.683 1055.77 19.2351 1058.57 -7.81943 1067.22C-36.1649 1076.28 -61.4171 1093.8 -78.9158 1116.53C-94.2092 1136.41 -101.696 1158.49 -98.4608 1174.15C-95.6599 1187.68 -84.8342 1199.13 -67.9649 1206.39C-53.4693 1212.62 -35.8695 1215.04 -22.0409 1212.69C-8.81617 1210.44 10.8613 1199.8 29.8974 1189.5C48.4829 1179.45 66.0356 1169.95 75.9315 1169.21C84.587 1168.57 102.92 1170.52 122.324 1172.59C147.265 1175.25 173.052 1178 183.686 1175.99C183.854 1175.96 184.006 1175.92 184.152 1175.86L184.154 1175.87Z" fill="#343434" fill-opacity="0.07"/>
</g>
<defs>
<clipPath id="clip0_7_279">
<rect width="2600" height="1300" fill="white"/>
</clipPath>
</defs>
</svg>
