<svg width="478" height="512" viewBox="0 0 478 512" fill="none" xmlns="http://www.w3.org/2000/svg">
<path d="M302.934 324.268C286.465 324.268 273.067 344.799 273.067 370.041C273.067 374.754 276.887 378.574 281.6 378.574C286.313 378.574 290.133 374.754 290.133 370.041C290.133 352.514 298.538 341.335 302.933 341.335C307.646 341.335 311.466 337.514 311.466 332.802C311.467 328.088 307.647 324.268 302.934 324.268Z" fill="#8C9E8A"/>
<path d="M93.867 85.334H59.734C50.308 85.334 42.667 92.975 42.667 102.401V136.534C42.667 145.96 50.308 153.601 59.734 153.601H93.867C103.293 153.601 110.934 145.96 110.934 136.534V102.401C110.934 92.975 103.293 85.334 93.867 85.334ZM59.734 136.534V102.401H93.867V136.534H59.734Z" fill="#8C9E8A"/>
<path d="M145.067 145.067H264.534C269.247 145.067 273.067 141.247 273.067 136.534C273.067 131.821 269.246 128 264.534 128H145.067C140.354 128 136.534 131.821 136.534 136.533C136.534 141.245 140.354 145.067 145.067 145.067Z" fill="#8C9E8A"/>
<path d="M298.668 145.067H341.335C346.048 145.067 349.868 141.247 349.868 136.534C349.868 131.821 346.048 128 341.335 128H298.668C293.955 128 290.135 131.821 290.135 136.533C290.135 141.245 293.955 145.067 298.668 145.067Z" fill="#8C9E8A"/>
<path d="M145.067 110.933H256C260.713 110.933 264.533 107.112 264.533 102.4C264.533 97.6872 260.712 93.8672 256 93.8672H145.067C140.354 93.8672 136.534 97.6882 136.534 102.4C136.534 107.113 140.354 110.933 145.067 110.933Z" fill="#8C9E8A"/>
<path d="M93.867 187.734H59.734C50.308 187.734 42.667 195.375 42.667 204.801V238.934C42.667 248.36 50.308 256.001 59.734 256.001H93.867C103.293 256.001 110.934 248.36 110.934 238.934V204.801C110.934 195.375 103.293 187.734 93.867 187.734ZM59.734 238.934V204.801H93.867V238.934H59.734Z" fill="#8C9E8A"/>
<path d="M145.067 247.468H264.534C269.247 247.468 273.067 243.647 273.067 238.935C273.067 234.222 269.246 230.402 264.534 230.402H145.067C140.354 230.402 136.534 234.223 136.534 238.935C136.534 243.647 140.354 247.468 145.067 247.468Z" fill="#8C9E8A"/>
<path d="M145.067 213.334H341.334C346.047 213.334 349.867 209.513 349.867 204.801C349.867 200.088 346.047 196.268 341.334 196.268H145.067C140.354 196.268 136.534 200.089 136.534 204.801C136.534 209.514 140.354 213.334 145.067 213.334Z" fill="#8C9E8A"/>
<path d="M93.867 290.133H59.734C50.308 290.133 42.667 297.774 42.667 307.2V341.333C42.667 350.759 50.308 358.4 59.734 358.4H93.867C103.293 358.4 110.934 350.759 110.934 341.333V307.2C110.934 297.775 103.293 290.133 93.867 290.133ZM59.734 341.333V307.2H93.867V341.333H59.734Z" fill="#8C9E8A"/>
<path d="M204.8 332.801H145.067C140.354 332.801 136.534 336.622 136.534 341.334C136.534 346.046 140.355 349.867 145.067 349.867H204.8C209.513 349.867 213.333 346.047 213.333 341.334C213.333 336.621 209.513 332.801 204.8 332.801Z" fill="#8C9E8A"/>
<path d="M230.4 298.668H145.067C140.354 298.668 136.534 302.489 136.534 307.201C136.534 311.914 140.355 315.734 145.067 315.734H230.4C235.113 315.734 238.933 311.913 238.933 307.201C238.934 302.488 235.113 298.668 230.4 298.668Z" fill="#8C9E8A"/>
<path d="M384.999 82.7731L309.76 7.53513C304.954 2.69213 298.407 -0.0218673 291.584 0.000132715H25.6C11.462 0.000132715 0 11.4621 0 25.6001V435.2C0 449.338 11.462 460.8 25.6 460.8H275.507C297.289 484.512 324.967 502.028 355.72 511.565C357.465 512.144 359.351 512.144 361.096 511.565C447.283 482.919 477.866 417.425 477.866 370.04C477.866 325.231 449.757 290.134 413.866 290.134C406.653 290.149 399.477 291.145 392.533 293.095V100.949C392.556 94.1271 389.842 87.5791 384.999 82.7731ZM363.401 85.3331H307.2V29.1331L363.401 85.3331ZM25.6 443.733C20.887 443.733 17.067 439.913 17.067 435.2V25.6001C17.067 20.8871 20.888 17.0671 25.6 17.0671H290.134V85.3341C290.134 94.7601 297.775 102.401 307.201 102.401H375.468V299.956C369.318 303.27 363.588 307.309 358.401 311.988C343.293 298.028 323.505 290.231 302.934 290.134C267.043 290.134 238.934 325.232 238.934 370.04C239.412 396.354 247.539 421.961 262.324 443.734H25.6V443.733ZM460.8 370.04C460.8 411.256 433.911 468.25 358.4 494.456C282.889 468.25 256 411.256 256 370.04C256 334.797 276.617 307.201 302.933 307.201C321.636 307.306 339.393 315.443 351.684 329.541C353.303 331.601 355.779 332.803 358.4 332.801C361.01 332.794 363.475 331.601 365.099 329.558C377.394 315.453 395.156 307.31 413.867 307.201C440.184 307.2 460.8 334.797 460.8 370.04Z" fill="#8C9E8A"/>
</svg>
