<svg width="512" height="512" viewBox="0 0 512 512" fill="none" xmlns="http://www.w3.org/2000/svg">
<g clip-path="url(#clip0_2_881)">
<path d="M426.649 221.867C413.625 221.841 400.698 224.112 388.462 228.574L379.417 125.73C378.153 112.442 366.952 102.318 353.604 102.4H298.649V93.867C298.649 42.026 256.624 0 204.783 0C152.942 0 110.916 42.026 110.916 93.867V102.4H55.961C42.589 102.325 31.378 112.484 30.139 125.798L0.178957 465.587C-0.856043 477.435 3.12096 489.175 11.144 497.954C19.384 506.906 30.995 511.999 43.161 512H349.849C350.718 511.996 351.582 511.858 352.409 511.59C470.169 473.907 511.982 387.857 511.982 325.563C511.983 267.418 474.496 221.867 426.649 221.867ZM127.983 93.867C127.983 51.452 162.368 17.067 204.783 17.067C247.198 17.067 281.583 51.452 281.583 93.867V102.4H127.983V93.867ZM23.739 486.4C18.905 481.179 16.522 474.147 17.185 467.063L47.128 127.368C47.579 122.843 51.413 119.413 55.96 119.466H110.915V129.569C99.16 133.725 92.109 145.745 94.217 158.034C96.325 170.323 106.98 179.305 119.448 179.305C131.916 179.305 142.571 170.323 144.679 158.034C146.787 145.745 139.736 133.725 127.981 129.569V119.466H281.581V129.569C269.826 133.725 262.775 145.745 264.883 158.034C266.991 170.323 277.646 179.305 290.114 179.305C302.582 179.305 313.237 170.323 315.345 158.034C317.453 145.745 310.402 133.725 298.647 129.569V119.466H353.602C358.125 119.406 361.95 122.801 362.425 127.3L372.034 236.237C364.034 240.684 356.587 246.06 349.847 252.254C329.012 232.776 301.569 221.917 273.047 221.867C225.201 221.867 187.714 267.418 187.714 325.556C189.405 378.094 213.619 427.365 254.18 460.801H68.249C63.536 460.801 59.716 464.622 59.716 469.334C59.716 474.047 63.537 477.867 68.249 477.867H276.514C285.897 484.206 295.696 489.908 305.843 494.934H43.161C35.777 494.937 28.731 491.841 23.739 486.4ZM127.983 153.6C127.983 158.313 124.162 162.133 119.45 162.133C114.737 162.133 110.917 158.312 110.917 153.6C110.917 148.888 114.738 145.067 119.45 145.067C124.162 145.067 127.983 148.887 127.983 153.6ZM298.649 153.6C298.649 158.313 294.828 162.133 290.116 162.133C285.403 162.133 281.583 158.312 281.583 153.6C281.583 148.888 285.404 145.067 290.116 145.067C294.829 145.067 298.649 148.887 298.649 153.6ZM349.849 494.49C242.841 459.205 204.782 381.628 204.782 325.53C204.782 276.984 234.768 238.934 273.049 238.934C299.721 239.128 325.125 250.346 343.236 269.927C344.857 271.914 347.285 273.067 349.849 273.067C352.409 273.067 354.833 271.917 356.454 269.935C374.565 250.348 399.973 239.126 426.649 238.933C464.93 238.933 494.916 276.983 494.916 325.555C494.916 381.628 456.857 459.204 349.849 494.49Z" fill="#8C9E8A"/>
<path d="M273.049 256C240.998 256 221.849 290.705 221.849 324.267C221.849 328.98 225.67 332.8 230.382 332.8C235.094 332.8 238.915 328.98 238.915 324.267C238.915 299.64 251.962 273.067 273.048 273.067C277.761 273.067 281.581 269.247 281.581 264.534C281.581 259.821 277.762 256 273.049 256Z" fill="#8C9E8A"/>
</g>
<defs>
<clipPath id="clip0_2_881">
<rect width="512" height="512" fill="white"/>
</clipPath>
</defs>
</svg>
