<svg width="512" height="512" viewBox="0 0 512 512" fill="none" xmlns="http://www.w3.org/2000/svg">
<g clip-path="url(#clip0_2_777)">
<path d="M486.399 145.065H127.087L121.515 107.212C119.615 94.6756 108.867 85.3906 96.1878 85.3326H83.7628C80.1598 75.1406 70.5429 68.3106 59.7329 68.2656H25.5999C11.462 68.2656 0 79.7276 0 93.8656C0 108.004 11.462 119.466 25.5999 119.466H59.7329C70.5429 119.421 80.1598 112.591 83.7628 102.399H96.1878C100.414 102.418 103.998 105.509 104.636 109.686L143.744 375.601C125.082 376.171 110.355 391.653 110.718 410.32C111.08 428.987 126.397 443.885 145.067 443.731H153.822C148.175 451.073 145.098 460.068 145.067 469.331C145.067 492.895 164.17 511.998 187.734 511.998C211.298 511.998 230.401 492.895 230.401 469.331C230.37 460.068 227.293 451.073 221.646 443.731H341.555C335.908 451.073 332.831 460.068 332.8 469.331C332.8 492.895 351.903 511.998 375.467 511.998C399.031 511.998 418.134 492.895 418.134 469.331C418.103 460.068 415.026 451.073 409.379 443.731H426.668C431.381 443.731 435.201 439.911 435.201 435.198C435.201 430.485 431.381 426.665 426.668 426.665H145.069C135.643 426.665 128.002 419.024 128.002 409.598C128.002 400.172 135.643 392.531 145.069 392.531H370.894C426.566 392.404 473.567 351.131 480.889 295.942L494.082 194.984C497.986 193.825 501.537 191.704 504.407 188.814C509.307 184.052 512.05 177.496 512.002 170.664C511.999 156.526 500.538 145.065 486.399 145.065ZM59.7329 102.399H25.5999C20.887 102.399 17.067 98.5776 17.067 93.8656C17.067 89.1526 20.888 85.3326 25.5999 85.3326H59.7329C64.4459 85.3326 68.2659 89.1536 68.2659 93.8656C68.2669 98.5786 64.4459 102.399 59.7329 102.399ZM213.333 469.332C213.333 479.686 207.096 489.021 197.53 492.983C187.964 496.945 176.953 494.755 169.631 487.434C162.309 480.112 160.119 469.101 164.082 459.535C168.044 449.969 177.379 443.732 187.733 443.732C201.872 443.732 213.333 455.193 213.333 469.332ZM401.066 469.332C401.066 483.47 389.604 494.932 375.466 494.932C361.328 494.932 349.866 483.47 349.866 469.332C349.866 455.194 361.328 443.732 375.466 443.732C389.604 443.732 401.066 455.193 401.066 469.332ZM370.892 375.465H160.973L134.614 196.265H476.689L463.966 293.741C457.767 340.437 417.998 375.357 370.892 375.465ZM492.313 176.749C490.756 178.334 488.621 179.218 486.399 179.198H132.105L129.596 162.131H486.399C491.112 162.131 494.932 165.952 494.932 170.664C494.937 172.968 493.989 175.17 492.313 176.749Z" fill="#8C9E8A"/>
<path d="M439.68 281.975C437.434 281.663 435.157 282.267 433.36 283.65C431.563 285.033 430.397 287.08 430.123 289.331C426.176 319.049 400.863 341.269 370.885 341.333C366.172 341.333 362.352 345.153 362.352 349.866C362.352 354.579 366.173 358.399 370.885 358.399C409.432 358.319 441.978 329.744 447.045 291.532C447.649 286.86 444.352 282.581 439.68 281.975Z" fill="#8C9E8A"/>
<path d="M264.959 102.878C261.736 106.24 261.804 111.564 265.111 114.843C268.418 118.122 273.743 118.144 277.077 114.893C285.061 106.895 295.899 102.401 307.2 102.401C318.501 102.401 329.338 106.895 337.323 114.893C340.657 118.144 345.982 118.122 349.289 114.843C352.596 111.564 352.663 106.24 349.441 102.878C338.253 91.647 323.053 85.334 307.201 85.334C291.349 85.334 276.147 91.647 264.959 102.878Z" fill="#8C9E8A"/>
<path d="M373.588 87.211C377.039 87.21 380.15 85.131 381.47 81.943C382.79 78.755 382.061 75.085 379.621 72.645C339.612 32.673 274.785 32.673 234.776 72.645C232.558 74.788 231.668 77.96 232.449 80.944C233.23 83.928 235.56 86.257 238.543 87.038C241.527 87.819 244.699 86.929 246.842 84.711C280.188 51.407 334.208 51.407 367.555 84.711C369.155 86.311 371.325 87.21 373.588 87.211Z" fill="#8C9E8A"/>
<path d="M403.797 57.0025C407.25 57.0015 410.362 54.9205 411.681 51.7285C413 48.5375 412.266 44.8655 409.821 42.4275C353.1 -14.1425 261.298 -14.1425 204.577 42.4275C201.338 45.7715 201.377 51.0935 204.664 54.3905C207.951 57.6865 213.274 57.7405 216.626 54.5115C266.688 4.5865 347.71 4.5865 397.772 54.5115C399.372 56.1055 401.539 57.0015 403.797 57.0025Z" fill="#8C9E8A"/>
</g>
<defs>
<clipPath id="clip0_2_777">
<rect width="512" height="512" fill="white"/>
</clipPath>
</defs>
</svg>
