<svg width="512" height="512" viewBox="0 0 512 512" fill="none" xmlns="http://www.w3.org/2000/svg">
<g clip-path="url(#clip0_2_614)">
<path d="M366.933 375.467H264.533C250.394 375.467 238.933 386.929 238.933 401.067V452.267C238.933 466.405 250.395 477.867 264.533 477.867H366.933C381.071 477.867 392.533 466.405 392.533 452.267V401.067C392.533 386.928 381.072 375.467 366.933 375.467ZM375.467 452.267C375.467 456.98 371.647 460.8 366.934 460.8H264.534C259.821 460.8 256.001 456.98 256.001 452.267V401.067C256.001 396.354 259.822 392.534 264.534 392.534H366.934C371.647 392.534 375.467 396.354 375.467 401.067V452.267Z" fill="#8C9E8A"/>
<path d="M170.667 452.268H42.6668C37.9538 452.268 34.1338 456.088 34.1338 460.801C34.1338 465.514 37.9548 469.334 42.6668 469.334H170.667C175.38 469.334 179.2 465.514 179.2 460.801C179.2 456.088 175.38 452.268 170.667 452.268Z" fill="#8C9E8A"/>
<path d="M42.6668 435.201H76.7998C81.5128 435.201 85.3328 431.381 85.3328 426.668C85.3328 421.955 81.5128 418.135 76.7998 418.135H42.6668C37.9538 418.135 34.1338 421.955 34.1338 426.668C34.1338 431.381 37.9538 435.201 42.6668 435.201Z" fill="#8C9E8A"/>
<path d="M110.933 418.133C106.22 418.133 102.4 421.953 102.4 426.666C102.4 431.379 106.221 435.199 110.933 435.199H128C132.713 435.199 136.533 431.379 136.533 426.666C136.533 421.953 132.712 418.133 128 418.133H110.933Z" fill="#8C9E8A"/>
<path d="M42.6668 401.067H153.6C158.313 401.067 162.133 397.247 162.133 392.534C162.133 387.821 158.313 384 153.6 384H42.6668C37.9538 384 34.1338 387.82 34.1338 392.533C34.1338 397.246 37.9538 401.067 42.6668 401.067Z" fill="#8C9E8A"/>
<path d="M498.296 109.722L482.211 106.505C479.832 98.069 476.455 89.948 472.15 82.313L481.272 68.66C485.747 61.885 484.853 52.899 479.13 47.139L464.888 32.88C459.142 27.117 450.126 26.213 443.35 30.721L429.697 39.835C422.062 35.533 413.94 32.159 405.505 29.783L402.288 13.689C400.653 5.732 393.658 0.016 385.536 0H365.397C357.264 0 350.261 5.739 348.663 13.713L345.446 29.798C337.007 32.173 328.883 35.547 321.245 39.85L307.575 30.719C300.801 26.229 291.802 27.124 286.045 32.861L271.794 47.103C266.064 52.87 265.17 61.867 269.652 68.65L278.766 82.303C278.211 83.284 277.819 84.334 277.298 85.324H25.6C11.462 85.324 0 96.786 0 110.924V486.4C0 500.539 11.462 512 25.6 512H401.067C415.205 512 426.667 500.539 426.667 486.4V234.667C427.657 234.146 428.706 233.754 429.688 233.199L443.341 242.321C450.116 246.808 459.112 245.913 464.871 240.179L479.122 225.937C484.842 220.167 485.729 211.175 481.247 204.399L472.133 190.746C476.435 183.111 479.809 174.989 482.185 166.554L498.279 163.337C506.241 161.722 511.973 154.736 512.001 146.612V126.465C511.978 118.34 506.255 111.348 498.296 109.722ZM252.646 163.345L268.731 166.562C271.107 174.997 274.481 183.119 278.783 190.754L272.98 199.449L251.271 188.629C248.872 187.432 246.05 187.432 243.651 188.629L213.332 203.793L183.013 188.629C180.612 187.429 177.786 187.429 175.384 188.629L153.6 199.526V102.4H270.157C269.713 103.782 269.124 105.114 268.732 106.505L252.638 109.722C244.68 111.345 238.956 118.334 238.933 126.456V146.603C238.956 154.729 244.684 161.722 252.646 163.345ZM409.6 486.4C409.6 491.113 405.779 494.933 401.067 494.933H25.6C20.887 494.933 17.067 491.113 17.067 486.4V110.933C17.067 106.22 20.888 102.4 25.6 102.4H136.533V213.333C136.532 216.291 138.062 219.038 140.578 220.594C143.094 222.15 146.235 222.292 148.881 220.97L179.2 205.806L209.519 221.012C211.92 222.212 214.746 222.212 217.148 221.012L247.467 205.806L266.897 215.491C267.258 219.443 268.991 223.144 271.795 225.953L286.037 240.187C291.788 245.944 300.803 246.841 307.575 242.329L321.228 233.215C328.863 237.517 336.985 240.891 345.42 243.267L348.637 259.361C350.265 267.327 357.266 273.052 365.396 273.066H385.535C393.668 273.066 400.671 267.327 402.269 259.353L405.486 243.268C406.885 242.875 408.217 242.287 409.599 241.843V486.4H409.6ZM494.933 146.611L473.6 150.878C470.301 151.538 467.698 154.074 466.953 157.355C464.597 167.677 460.496 177.521 454.827 186.462C453.033 189.306 453.077 192.938 454.938 195.738L467.038 213.888L452.787 228.13L434.645 216.03C431.845 214.169 428.213 214.125 425.369 215.919C416.424 221.57 406.58 225.654 396.262 227.994C392.981 228.739 390.445 231.343 389.785 234.641L385.518 255.974H365.388L361.121 234.641C360.461 231.342 357.925 228.739 354.644 227.994C344.324 225.646 334.48 221.554 325.537 215.894C322.693 214.1 319.061 214.144 316.261 216.005L298.119 228.105L283.868 213.854L295.968 195.712C297.829 192.912 297.873 189.28 296.079 186.436C290.428 177.491 286.344 167.647 284.004 157.329C283.259 154.048 280.655 151.512 277.357 150.852L256.024 146.585V126.455L277.357 122.188C280.656 121.528 283.259 118.992 284.004 115.711C286.352 105.391 290.444 95.547 296.104 86.604C297.898 83.76 297.854 80.128 295.993 77.328L283.867 59.178L298.118 44.936L316.26 57.036C319.06 58.897 322.692 58.941 325.536 57.147C334.481 51.496 344.325 47.412 354.643 45.072C357.924 44.327 360.46 41.723 361.12 38.425L365.387 17.092H385.534L389.801 38.425C390.461 41.724 392.997 44.327 396.278 45.072C406.601 47.419 416.448 51.511 425.394 57.172C428.238 58.966 431.87 58.922 434.67 57.061L452.812 44.961L467.063 59.212L454.963 77.328C453.102 80.128 453.058 83.76 454.852 86.604C460.503 95.549 464.587 105.393 466.927 115.711C467.672 118.992 470.276 121.528 473.574 122.188L494.907 126.455L494.933 146.611Z" fill="#8C9E8A"/>
<path d="M375.467 59.7324C333.052 59.7324 298.667 94.1174 298.667 136.532C298.667 178.947 333.052 213.332 375.467 213.332C417.882 213.332 452.267 178.947 452.267 136.532C452.22 94.1364 417.863 59.7794 375.467 59.7324ZM375.467 196.266C342.477 196.266 315.734 169.522 315.734 136.533C315.734 103.544 342.477 76.7994 375.467 76.7994C408.457 76.7994 435.2 103.543 435.2 136.532C435.158 169.505 408.439 196.223 375.467 196.266Z" fill="#8C9E8A"/>
</g>
<defs>
<clipPath id="clip0_2_614">
<rect width="512" height="512" fill="white"/>
</clipPath>
</defs>
</svg>
