<svg width="512" height="512" viewBox="0 0 512 512" fill="none" xmlns="http://www.w3.org/2000/svg">
<path d="M484.021 49.0723H27.979C12.552 49.0723 0 61.6243 0 77.0523V364.628C0 380.056 12.552 392.607 27.979 392.607H33.583L24.868 451.462C24.442 454.339 25.289 457.258 27.189 459.459C29.088 461.661 31.853 462.927 34.76 462.927H70.073C74.026 462.927 77.607 460.599 79.212 456.987L107.81 392.607H404.187L432.785 456.987C434.389 460.599 437.972 462.927 441.924 462.927H477.237C480.145 462.927 482.909 461.661 484.808 459.459C486.707 457.258 487.555 454.339 487.129 451.462L478.414 392.607H484.018C499.446 392.607 511.997 380.055 511.997 364.628V77.0523C512 61.6243 499.448 49.0723 484.021 49.0723ZM63.575 442.928H46.351L53.802 392.608H85.928L63.575 442.928ZM465.649 442.928H448.425L426.072 392.608H458.197L465.649 442.928ZM492 364.628C492 369.028 488.421 372.607 484.021 372.607H27.979C23.579 372.607 20 369.028 20 364.628V77.0523C20 72.6523 23.58 69.0733 27.979 69.0733H484.02C488.42 69.0733 491.999 72.6523 491.999 77.0523V364.628H492Z" fill="#8C9E8A"/>
<path d="M456.186 223.764H276.517C273.857 223.764 271.307 224.824 269.43 226.708C267.554 228.593 266.505 231.147 266.517 233.808L266.958 334.128C266.982 339.634 271.452 344.084 276.958 344.084H456.186C461.708 344.084 466.186 339.606 466.186 334.084V233.764C466.186 228.241 461.708 223.764 456.186 223.764ZM446.186 324.084H286.914L286.56 243.764H446.185V324.084H446.186Z" fill="#8C9E8A"/>
<path d="M234.867 223.764H55.8145C50.2915 223.764 45.8145 228.242 45.8145 233.764V334.084C45.8145 339.606 50.2915 344.084 55.8145 344.084H235.308C237.968 344.084 240.518 343.024 242.394 341.14C244.271 339.255 245.319 336.701 245.308 334.04L244.867 233.72C244.843 228.214 240.373 223.764 234.867 223.764ZM65.8145 324.084V243.764H224.911L225.265 324.084H65.8145Z" fill="#8C9E8A"/>
<path d="M456.186 97.5957H55.8145C50.2915 97.5957 45.8145 102.074 45.8145 107.596V187.993C45.8145 193.515 50.2915 197.993 55.8145 197.993H456.185C461.707 197.993 466.185 193.515 466.185 187.993V107.596C466.186 102.073 461.708 97.5957 456.186 97.5957ZM446.186 177.993H65.8145V117.596H446.185V177.993H446.186Z" fill="#8C9E8A"/>
<path d="M347.968 279.895H384.735C390.257 279.895 394.735 275.417 394.735 269.895C394.735 264.373 390.257 259.895 384.735 259.895H347.968C342.446 259.895 337.968 264.373 337.968 269.895C337.968 275.417 342.445 279.895 347.968 279.895Z" fill="#8C9E8A"/>
<path d="M163.944 259.895H127.178C121.655 259.895 117.178 264.373 117.178 269.895C117.178 275.417 121.655 279.895 127.178 279.895H163.944C169.467 279.895 173.944 275.417 173.944 269.895C173.944 264.373 169.467 259.895 163.944 259.895Z" fill="#8C9E8A"/>
</svg>
