<svg width="512" height="512" viewBox="0 0 512 512" fill="none" xmlns="http://www.w3.org/2000/svg">
<g clip-path="url(#clip0_2_872)">
<path d="M477.67 205.653C473.428 90.967 379.298 0.142 264.533 0H247.466C166.16 0.22 92.007 46.514 56.107 119.467H51.2C22.935 119.495 0.028 142.402 0 170.667V341.334C0.031 366.308 18.048 387.629 42.667 391.826V435.2C42.667 438.432 44.493 441.387 47.384 442.832C50.275 444.277 53.734 443.966 56.32 442.026L122.308 392.533H307.2C335.465 392.505 358.372 369.598 358.4 341.333V170.667C358.372 142.402 335.465 119.495 307.2 119.467H115.482C145.891 76.755 195.036 51.336 247.467 51.2H264.534C350.668 51.342 421.669 118.787 426.232 204.8H401.067C386.929 204.8 375.467 216.262 375.467 230.4V366.933C375.467 381.071 386.929 392.533 401.067 392.533H426.667V401.066C426.639 424.618 407.553 443.704 384 443.733H228.83C225.227 433.541 215.61 426.711 204.8 426.666H136.533C122.395 426.666 110.933 438.128 110.933 452.266V486.4C110.933 500.538 122.395 512 136.533 512H204.8C215.61 511.955 225.227 505.125 228.83 494.933H384C435.816 494.872 477.806 452.882 477.867 401.066V391.679C497.719 387.596 511.975 370.133 512 349.866V247.466C511.962 227.137 497.604 209.649 477.67 205.653ZM341.333 170.667V341.334C341.333 360.185 326.051 375.467 307.2 375.467H119.467C117.621 375.467 115.824 376.066 114.347 377.174L59.734 418.134V384C59.734 379.287 55.913 375.467 51.201 375.467C32.35 375.467 17.068 360.185 17.068 341.334V170.667C17.068 151.816 32.35 136.534 51.201 136.534H307.201C326.051 136.533 341.333 151.815 341.333 170.667ZM264.533 34.133H247.466C185.311 34.286 127.653 66.563 95.027 119.466H75.213C109.669 56.482 175.674 17.243 247.467 17.066H264.534C369.554 17.194 455.908 99.884 460.587 204.799H443.298C438.714 109.362 360.082 34.292 264.533 34.133ZM392.533 366.933V230.4C392.533 225.687 396.353 221.867 401.066 221.867H426.666V375.467H401.066C396.354 375.467 392.533 371.646 392.533 366.933ZM213.333 486.4C213.333 491.113 209.512 494.933 204.8 494.933H136.533C131.82 494.933 128 491.113 128 486.4V452.267C128 447.554 131.821 443.734 136.533 443.734H204.8C209.513 443.734 213.333 447.554 213.333 452.267V486.4ZM384 477.867H230.4V460.8H384C416.972 460.758 443.691 434.039 443.733 401.067V392.534H460.8V401.067C460.753 443.463 426.396 477.82 384 477.867ZM494.933 349.867C494.933 364.005 483.471 375.467 469.333 375.467H443.733V221.867H469.333C483.471 221.867 494.933 233.329 494.933 247.467V349.867Z" fill="#8C9E8A"/>
<path d="M42.667 204.801C42.667 209.514 46.488 213.334 51.2 213.334H213.333C218.046 213.334 221.866 209.513 221.866 204.801C221.866 200.088 218.045 196.268 213.333 196.268H51.2C46.487 196.268 42.667 200.088 42.667 204.801Z" fill="#8C9E8A"/>
<path d="M247.467 213.334H307.2C311.913 213.334 315.733 209.513 315.733 204.801C315.733 200.088 311.913 196.268 307.2 196.268H247.467C242.754 196.268 238.934 200.089 238.934 204.801C238.933 209.514 242.754 213.334 247.467 213.334Z" fill="#8C9E8A"/>
<path d="M307.2 247.467H51.2C46.487 247.467 42.667 251.288 42.667 256C42.667 260.713 46.488 264.533 51.2 264.533H307.2C311.913 264.533 315.733 260.712 315.733 256C315.733 251.287 311.913 247.467 307.2 247.467Z" fill="#8C9E8A"/>
<path d="M162.133 298.668H51.2C46.487 298.668 42.667 302.488 42.667 307.201C42.667 311.914 46.488 315.734 51.2 315.734H162.133C166.846 315.734 170.666 311.914 170.666 307.201C170.666 302.488 166.846 298.668 162.133 298.668Z" fill="#8C9E8A"/>
</g>
<defs>
<clipPath id="clip0_2_872">
<rect width="512" height="512" fill="white"/>
</clipPath>
</defs>
</svg>
