<svg width="512" height="512" viewBox="0 0 512 512" fill="none" xmlns="http://www.w3.org/2000/svg">
<g clip-path="url(#clip0_2_298)">
<path d="M426.668 384C417.974 383.997 410.671 377.459 409.711 368.818C408.751 360.177 414.44 352.195 422.922 350.284C431.404 348.373 439.966 353.143 442.805 361.361C444.344 365.817 449.203 368.182 453.659 366.643C458.115 365.104 460.48 360.245 458.941 355.789C455.185 345 446.27 336.812 435.201 333.986V324.267C435.201 319.554 431.381 315.734 426.668 315.734C421.955 315.734 418.135 319.554 418.135 324.267V334.012C401.511 338.291 390.667 354.273 392.834 371.302C395.001 388.332 409.501 401.087 426.668 401.066C435.327 401.069 442.611 407.555 443.615 416.155C444.618 424.755 439.023 432.744 430.597 434.74C422.172 436.736 413.587 432.106 410.625 423.97C409.584 421.104 407.093 419.012 404.091 418.48C401.09 417.949 398.032 419.06 396.071 421.394C394.11 423.728 393.543 426.932 394.584 429.798C398.465 440.328 407.267 448.282 418.135 451.08V460.799C418.135 465.512 421.955 469.332 426.668 469.332C431.381 469.332 435.201 465.511 435.201 460.799V451.054C451.826 446.775 462.67 430.793 460.503 413.764C458.335 396.734 443.835 383.979 426.668 384Z" fill="#8C9E8A"/>
<path d="M486.4 0.00390625H153.604C139.465 0.00390625 128.004 11.4658 128.004 25.6036V264.534H102.405C69.431 264.572 42.7093 291.293 42.6723 324.266V359.551C30.5735 356.4 17.7216 360.126 9.18372 369.26C0.646818 378.393 -2.20415 391.467 1.7548 403.326L18.8216 454.526C23.4685 468.464 36.5124 477.865 51.2052 477.864V486.397C51.2052 500.535 62.6671 511.997 76.8049 511.997C90.9428 511.997 102.405 500.535 102.405 486.397V477.864H187.737V486.397C187.737 500.535 199.199 511.997 213.336 511.997C227.474 511.997 238.936 500.535 238.936 486.397V477.864H341.335V486.397C341.335 500.535 352.797 511.997 366.935 511.997H486.4C500.538 511.997 512 500.535 512 486.397V25.6026C512 11.4648 500.538 0.00390625 486.4 0.00390625ZM145.07 25.6036C145.07 20.8907 148.891 17.0707 153.603 17.0707H307.201V460.799H268.409C269.59 458.813 270.565 456.711 271.319 454.527L288.385 403.327C292.332 391.465 289.479 378.395 280.949 369.258C272.418 360.12 259.574 356.377 247.469 359.501V324.267C247.431 291.293 220.71 264.572 187.737 264.535H145.07V25.6036ZM59.7381 324.267C59.7661 300.715 78.8519 281.63 102.405 281.601H187.737C211.288 281.629 230.374 300.714 230.403 324.267V369.963C227.36 373.39 225.038 377.395 223.576 381.738L214.334 409.599H75.8149L66.565 381.738C65.1061 377.393 62.7841 373.388 59.7381 369.963V324.267ZM85.3378 486.398C85.3378 491.111 81.5169 494.931 76.8049 494.931C72.093 494.931 68.272 491.11 68.272 486.398V477.865H85.3388L85.3378 486.398ZM93.8707 460.799H51.2052C43.8503 460.808 37.3164 456.104 34.9924 449.125L17.9256 397.925C14.9466 388.971 19.7916 379.297 28.7455 376.319C37.6994 373.342 47.3733 378.185 50.3512 387.139L61.5891 420.829C62.7481 424.309 66.002 426.659 69.67 426.666H220.478C224.153 426.667 227.415 424.315 228.576 420.829L239.789 387.131C241.217 382.829 244.297 379.272 248.35 377.244C252.403 375.216 257.097 374.884 261.396 376.319C265.699 377.745 269.259 380.824 271.288 384.878C273.318 388.931 273.652 393.626 272.216 397.926L255.149 449.126C252.825 456.104 246.291 460.809 238.936 460.799L93.8707 460.799ZM221.869 486.398C221.869 491.111 218.048 494.931 213.336 494.931C208.623 494.931 204.803 491.11 204.803 486.398V477.865H221.87V486.398H221.869ZM324.268 460.799V17.0707H486.399C491.112 17.0707 494.932 20.8917 494.932 25.6036V299.52L443.673 253.962C433.974 245.341 419.358 245.341 409.659 253.962L355.661 301.961C346.556 310.05 341.343 321.645 341.334 333.824V460.799H324.268ZM494.933 486.398C494.933 491.111 491.113 494.931 486.4 494.931H366.935C362.222 494.931 358.402 491.11 358.402 486.398V333.824C358.403 326.512 361.53 319.55 366.995 314.692L421.001 266.684C424.233 263.814 429.101 263.814 432.333 266.684L486.339 314.683C491.806 319.542 494.934 326.509 494.932 333.823V486.398H494.933Z" fill="#8C9E8A"/>
<path d="M290.135 42.6696C290.135 37.9567 286.315 34.1367 281.602 34.1367H170.671C165.958 34.1367 162.138 37.9577 162.138 42.6696C162.138 47.3816 165.959 51.2025 170.671 51.2025H281.602C286.315 51.2025 290.135 47.3816 290.135 42.6696Z" fill="#8C9E8A"/>
<path d="M349.868 51.2025H469.333C474.046 51.2025 477.866 47.3816 477.866 42.6696C477.866 37.9577 474.045 34.1367 469.333 34.1367H349.868C345.155 34.1367 341.335 37.9577 341.335 42.6696C341.335 47.3816 345.156 51.2025 349.868 51.2025Z" fill="#8C9E8A"/>
<path d="M281.602 230.4C276.889 230.4 273.069 234.221 273.069 238.933V273.066C273.069 277.779 276.889 281.599 281.602 281.599C286.315 281.599 290.135 277.778 290.135 273.066V238.933C290.135 234.22 286.315 230.4 281.602 230.4Z" fill="#8C9E8A"/>
<path d="M349.868 281.601C354.581 281.601 358.401 277.78 358.401 273.068V238.935C358.401 234.222 354.58 230.402 349.868 230.402C345.156 230.402 341.335 234.223 341.335 238.935V273.068C341.335 277.78 345.156 281.601 349.868 281.601Z" fill="#8C9E8A"/>
</g>
<defs>
<clipPath id="clip0_2_298">
<rect width="512" height="512" fill="white"/>
</clipPath>
</defs>
</svg>
