<svg width="512" height="512" viewBox="0 0 512 512" fill="none" xmlns="http://www.w3.org/2000/svg">
<g clip-path="url(#clip0_2_755)">
<path d="M255.999 0.045033C201.409 -0.00595863 148.249 17.4922 104.361 49.9568C84.361 45.6266 63.6584 45.6995 43.6897 50.1698L12.2839 35.0253C8.07055 33.1316 3.11536 34.9353 1.10469 39.0946C-0.905981 43.2539 0.759745 48.2571 4.86107 50.3828L23.35 59.3073C18.6788 62.4108 14.5335 66.2422 11.0731 70.6544C-5.25727 92.1889 -3.26959 125.123 16.4742 165.862C-23.5173 271.906 11.0321 391.625 101.376 460.057C191.72 528.488 316.321 529.319 407.57 462.099C418.448 464.15 429.485 465.238 440.555 465.35C446.175 465.353 451.789 464.962 457.354 464.181L490.304 485.067C494.286 487.588 499.558 486.404 502.079 482.423C504.599 478.442 503.415 473.169 499.434 470.649L479.537 457.97C487.969 454.325 495.342 448.608 500.97 441.35C517.3 419.798 515.312 386.891 495.569 346.142C525.19 267.522 514.331 179.371 466.513 110.291C418.696 41.2113 340.013 0.0060394 255.999 0.045033ZM429.401 91.942C410.647 101.656 390.821 109.141 370.326 114.244C359.794 80.2069 340.87 49.3649 315.295 24.557C358.923 35.8122 398.479 59.1723 429.401 91.942ZM403.311 443.867C387.515 440.42 371.994 435.817 356.871 430.096C361.981 419.594 366.46 408.796 370.283 397.761C390.793 402.861 410.634 410.346 429.4 420.063C421.298 428.625 412.578 436.581 403.311 443.867ZM71.0262 104.988C91.7148 116.193 113.729 124.755 136.551 130.473C125.709 168.541 120.008 207.89 119.598 247.471H94.8563C71.6031 222.598 51.5404 194.923 35.1331 165.087C44.0846 143.402 56.1787 123.152 71.0262 104.988ZM119.598 264.535C119.649 267.549 119.726 270.544 119.828 273.519C116.791 270.533 113.856 267.547 110.913 264.535H119.598ZM136.662 264.535H247.466V367.037C243.695 367.1 239.938 367.202 236.195 367.344C222.074 358.052 208.04 348.138 194.175 337.67C174.27 322.611 155.388 306.776 137.864 290.616C137.217 282.062 136.816 273.368 136.662 264.535ZM264.53 264.535H375.334C374.896 302.786 369.323 340.806 358.765 377.574C327.772 370.995 296.21 367.466 264.529 367.037V264.535H264.53ZM264.53 247.47V144.968C296.211 144.539 327.773 141.01 358.766 134.431C369.324 171.199 374.896 209.219 375.335 247.47H264.53ZM264.53 127.913V17.7821C301.217 22.9953 333.357 61.449 353.467 118.161C324.199 124.231 294.419 127.496 264.53 127.913ZM247.466 17.7821V127.912C217.578 127.495 187.798 124.23 158.53 118.16C178.64 61.475 210.779 22.9953 247.466 17.7821ZM247.466 144.968V247.47H136.662C137.1 209.219 142.673 171.199 153.232 134.431C184.224 141.01 215.786 144.539 247.466 144.968ZM71.8621 247.47H17.318C18.0279 226.764 21.4414 206.238 27.4714 186.415C40.4522 208.028 55.3058 228.459 71.8621 247.47ZM87.1426 264.535C97.7788 275.996 109.178 287.4 121.339 298.748C123.643 326.78 128.739 354.513 136.551 381.533C113.729 387.251 91.7148 395.813 71.0262 407.018C37.9866 366.697 19.1157 316.633 17.318 264.535H87.1426ZM140.357 315.914C154.162 327.944 168.691 339.803 183.87 351.279C192.026 357.456 200.242 363.386 208.476 369.153C189.906 370.847 171.455 373.66 153.223 377.574C147.304 357.395 143.001 336.777 140.357 315.914ZM231.384 384.605C236.753 388.091 242.114 391.476 247.466 394.758V494.224C210.779 489.011 178.64 450.557 158.53 393.845C182.531 388.835 206.892 385.746 231.384 384.605ZM264.53 494.223V404.928C286.507 417.706 309.27 429.079 332.683 438.979C313.964 470.41 290.373 490.554 264.53 494.223ZM264.53 385.065V384.092C294.419 384.509 324.199 387.774 353.467 393.844C349.873 404.063 345.686 414.062 340.925 423.792C314.581 412.695 289.053 399.754 264.53 385.065ZM440.971 407.018C420.294 395.828 398.295 387.279 375.488 381.567C386.318 343.486 392.006 304.125 392.399 264.535H494.68C492.882 316.633 474.01 366.696 440.971 407.018ZM392.399 247.47C392.003 207.892 386.315 168.543 375.488 130.472C398.297 124.751 420.296 116.188 440.971 104.987C474.025 145.303 492.912 195.367 494.722 247.47H392.399ZM141.714 114.244C121.204 109.144 101.363 101.659 82.5963 91.942C113.527 59.1593 153.1 35.7932 196.745 24.54C171.168 49.3529 152.243 80.2009 141.714 114.244ZM24.6718 80.9528C26.2076 78.9541 27.9613 77.1344 29.902 75.5266L25.8836 91.865C24.7638 96.4402 27.5634 101.057 32.1376 102.18C32.8015 102.345 33.4834 102.428 34.1683 102.427C38.0946 102.422 41.5101 99.7387 42.4439 95.9263L49.7217 66.2782C61.7287 63.6976 74.0827 63.1407 86.2727 64.6314C61.0499 87.0038 40.4672 114.114 25.6957 144.422C14.9034 116.821 14.3405 94.5955 24.6718 80.9528ZM82.5953 420.063C101.362 410.346 121.204 402.861 141.713 397.761C152.245 431.798 171.169 462.64 196.744 487.448C153.102 476.2 113.529 452.84 82.5953 420.063ZM348.732 445.352C361.155 450.022 373.202 453.904 384.873 456.998C363.45 470.819 339.943 481.1 315.252 487.448C328.58 475.285 339.881 461.074 348.732 445.352ZM487.325 431.052C484.303 434.901 480.529 438.094 476.234 440.438L485.508 421.915C486.896 419.183 486.712 415.918 485.027 413.358C483.343 410.799 480.415 409.341 477.358 409.536C474.3 409.732 471.583 411.551 470.237 414.304L453.761 447.323C444.457 448.397 435.061 448.417 425.751 447.383C450.986 425.009 471.579 397.896 486.362 367.584C497.102 395.184 497.657 417.41 487.325 431.052Z" fill="#8C9E8A"/>
</g>
<defs>
<clipPath id="clip0_2_755">
<rect width="512" height="512" fill="white"/>
</clipPath>
</defs>
</svg>
