<svg width="1800" height="600" viewBox="0 0 1800 600" fill="none" xmlns="http://www.w3.org/2000/svg">
<g clip-path="url(#clip0_7_239)">
<rect width="1800" height="600" fill="#E5E9E2"/>
<path d="M164.828 -53.7395C180.028 -46.7231 194.537 -39.6017 208.273 -32.4062C283.691 7.08716 333.648 47.2445 356.757 86.9526C380.403 127.573 375.076 166.797 340.927 203.546C237.252 315.102 157.446 377.066 104.641 418.065C80.873 436.519 62.0977 451.097 49.7466 463.664C29.195 484.582 -24.7857 500.028 -91.1288 503.984C-162.523 508.237 -232.385 498.522 -282.805 477.323C-352.342 448.087 -435.806 433.47 -493.577 426.358C-560.875 418.074 -633.257 415.211 -687.196 418.705C-722.016 420.962 -750.77 408.313 -770.342 382.133C-804.228 336.8 -806.274 256.842 -775.682 173.469C-761.18 133.955 -746.184 93.0878 -729.354 54.7441C-710.749 12.3464 -691.822 -22.3118 -671.5 -51.2133C-647.23 -85.7186 -620.386 -113.15 -589.441 -135.067C-554.889 -159.536 -516.017 -176.651 -470.601 -187.392C-393.037 -205.737 -213.587 -181.12 -34.2172 -127.532C39.1595 -105.606 107.007 -80.4216 164.825 -53.7339L164.828 -53.7395ZM-735.13 408.729C-721.075 415.216 -704.995 417.984 -687.313 416.837C-633.259 413.334 -560.75 416.201 -493.349 424.499C-435.463 431.629 -351.814 446.277 -282.077 475.599C-231.914 496.686 -162.354 506.357 -91.2316 502.116C-25.3326 498.187 28.182 482.951 48.4237 462.349C60.8664 449.687 79.6825 435.08 103.505 416.583C156.266 375.619 235.99 313.712 339.566 202.268C373.089 166.195 378.333 127.712 355.151 87.8814C332.219 48.4875 282.513 8.56978 207.412 -30.7638C141.548 -65.2584 57.812 -98.1051 -34.7429 -125.755C-213.835 -179.263 -392.887 -203.868 -470.167 -185.59C-515.346 -174.904 -554.001 -157.887 -588.36 -133.555C-619.131 -111.763 -645.829 -84.4832 -669.971 -50.1516C-715.272 14.2561 -745.087 95.5172 -773.927 174.101C-804.309 256.887 -802.363 336.169 -768.842 381.005C-759.589 393.387 -748.235 402.673 -735.128 408.723L-735.13 408.729Z" fill="#343434" fill-opacity="0.03"/>
<path d="M142.262 -29.5879C154.286 -24.0378 165.82 -18.4197 176.822 -12.746C246.205 23.0374 292.212 59.4753 313.576 95.5647C335.168 132.047 330.755 167.32 300.459 200.407C209.689 301.013 135.538 361.358 86.4786 401.286C63.4457 420.031 45.2558 434.838 32.8388 447.608C12.7594 468.243 -37.838 483.759 -99.2139 488.105C-164.935 492.759 -230.153 484.195 -278.151 464.614C-342.435 437.953 -419.12 424.083 -472.122 417.14C-534.395 408.985 -598.946 405.664 -649.234 408.037C-680.969 409.528 -707.157 397.488 -724.973 373.214C-755.901 331.081 -757.761 257.526 -729.814 181.248C-703.519 109.258 -676.33 34.8138 -633.817 -25.4667C-611.426 -57.2189 -586.67 -82.4995 -558.137 -102.751C-526.312 -125.344 -490.544 -141.209 -448.804 -151.265C-377.198 -168.76 -211.692 -147.177 -46.3287 -98.7875C23.4446 -78.3678 87.8382 -54.716 142.271 -29.5909L142.262 -29.5879ZM-691.697 398.635C-679.177 404.414 -664.937 407.017 -649.322 406.285C-598.937 403.909 -534.269 407.229 -471.901 415.401C-418.79 422.36 -341.949 436.261 -277.489 462.989C-229.734 482.472 -164.803 490.992 -99.3436 486.354C-38.3783 482.038 11.7859 466.719 31.5771 446.382C44.064 433.535 62.292 418.705 85.3628 399.922C134.387 360.026 208.465 299.736 299.152 199.221C328.869 166.765 333.212 132.192 312.057 96.4519C290.867 60.6546 245.092 24.4402 176.009 -11.1912C115.302 -42.5046 38.2403 -72.2091 -46.8379 -97.106C-211.935 -145.42 -377.062 -166.993 -448.406 -149.562C-489.933 -139.565 -525.499 -123.784 -557.139 -101.325C-585.509 -81.19 -610.124 -56.05 -632.4 -24.4571C-674.78 35.6385 -701.931 109.971 -728.185 181.856C-755.929 257.591 -754.162 330.515 -723.573 372.183C-714.879 384.027 -704.136 392.901 -691.7 398.641L-691.697 398.635Z" fill="#343434" fill-opacity="0.03"/>
<path d="M119.624 -5.54284C128.527 -1.43304 137.118 2.71717 145.39 6.90507C208.74 38.9729 250.8 71.6997 270.407 104.165C289.946 136.511 286.439 167.835 259.98 197.264C181.523 287.565 115.534 344.032 67.3549 385.256C45.4886 403.965 28.2211 418.746 15.9109 431.551C-3.99797 452.218 -50.0644 467.422 -107.319 472.226C-167.38 477.268 -227.956 469.855 -273.514 451.899C-380.51 408.248 -534.129 395.375 -611.283 397.366C-639.934 398.091 -663.567 386.655 -679.633 364.284C-707.597 325.353 -709.257 258.202 -683.969 189.033C-661.36 126.779 -635.726 56.2231 -596.153 0.280336C-575.637 -28.7163 -552.974 -51.8489 -526.858 -70.4375C-497.756 -91.1518 -465.101 -105.771 -427.027 -115.137C-394.085 -123.484 -340.542 -123.362 -272.197 -114.779C-206.549 -106.537 -130.633 -90.6465 -58.4439 -70.0491C7.70257 -51.1734 68.6331 -29.0791 119.618 -5.54544L119.624 -5.54284ZM-648.241 388.582C-637.267 393.648 -624.87 396.078 -611.323 395.733C-534.036 393.735 -380.124 406.64 -272.902 450.382C-227.575 468.244 -167.268 475.616 -107.451 470.598C-50.5869 465.826 -4.9068 450.806 14.7355 430.42C27.0996 417.558 44.397 402.756 66.2985 384.016C114.437 342.82 180.371 286.397 258.762 196.181C284.688 167.341 288.133 136.673 269.01 105.012C249.561 72.8116 207.725 40.2975 144.652 8.37122C89.0973 -19.7496 18.7092 -46.3257 -58.8867 -68.4671C-131.003 -89.0444 -206.827 -104.913 -272.396 -113.146C-340.534 -121.702 -393.864 -121.842 -426.622 -113.54C-464.5 -104.227 -496.973 -89.6886 -525.896 -69.0966C-551.86 -50.6157 -574.401 -27.612 -594.805 1.2309C-634.253 56.9918 -659.846 127.444 -682.417 189.599C-707.52 258.264 -705.942 324.837 -678.292 363.336C-670.147 374.679 -660.011 383.149 -648.236 388.585L-648.241 388.582Z" fill="#343434" fill-opacity="0.03"/>
<path d="M96.8972 18.3677C102.76 21.0738 108.458 23.7932 114.008 26.5396C171.322 54.8974 209.434 83.8992 227.29 112.743C244.757 140.963 242.141 168.339 219.52 194.112C152.679 274.963 91.4775 330.224 46.7908 370.569C27.5331 387.956 10.9041 402.971 -1.00075 415.49C-20.4482 435.884 -63.2203 451.158 -115.402 456.346C-169.822 461.754 -225.759 455.503 -268.863 439.186C-311.4 422.174 -366.848 408.175 -429.228 398.696C-479.296 391.089 -531.816 386.717 -573.325 386.694C-598.896 386.664 -619.983 375.822 -634.297 355.334C-659.272 319.596 -660.729 258.856 -638.099 196.81C-614.571 131.586 -592.334 73.7127 -558.465 26.0199C-539.829 -0.223638 -519.246 -21.2087 -495.547 -38.1341C-469.174 -56.967 -439.626 -70.3434 -405.217 -79.0195C-375.066 -86.9844 -326.316 -87.3772 -264.237 -80.153C-204.848 -73.2397 -136.043 -59.4547 -70.4932 -41.3334C-7.99169 -24.0512 49.4409 -3.5577 96.9162 18.356L96.8972 18.3677ZM-604.762 378.583C-595.345 382.93 -584.8 385.162 -573.322 385.176C-531.744 385.196 -479.138 389.574 -429 397.193C-366.505 406.69 -310.94 420.716 -268.313 437.771C-225.433 453.997 -169.75 460.22 -115.558 454.83C-63.728 449.678 -21.3092 434.576 -2.10966 414.438C9.83555 401.875 26.4863 386.843 45.7656 369.439C90.4171 329.125 151.57 273.91 218.354 193.122C240.498 167.895 243.066 141.127 225.989 113.546C208.282 84.9416 170.376 56.1309 113.325 27.9011C62.9107 2.96766 -0.795015 -20.4692 -70.9225 -39.8547C-136.4 -57.956 -205.12 -71.7296 -264.434 -78.6286C-326.323 -85.8337 -374.877 -85.4527 -404.857 -77.5321C-439.086 -68.9033 -468.462 -55.6045 -494.679 -36.8848C-518.237 -20.0584 -538.703 0.809002 -557.239 26.9075C-590.993 74.441 -613.189 132.211 -636.685 197.333C-659.145 258.923 -657.758 319.132 -633.062 354.467C-625.465 365.338 -615.914 373.443 -604.776 378.584L-604.762 378.583Z" fill="#343434" fill-opacity="0.03"/>
<path d="M74.0589 42.1036C76.976 43.4501 79.8432 44.801 82.6718 46.1613C133.953 70.8036 168.12 96.0885 184.223 121.317C199.606 145.42 197.871 168.856 179.051 190.976C123.063 263.531 65.7793 318.28 23.9534 358.255C7.36992 374.104 -6.95649 387.793 -17.9125 399.443C-37.2028 419.882 -75.6861 434.836 -123.491 440.477C-172.302 446.235 -223.591 441.138 -264.21 426.481C-343.789 395.423 -460.551 378.564 -535.366 376.036C-557.885 375.251 -576.429 364.994 -588.992 346.376C-610.951 313.831 -612.202 259.51 -592.246 204.608C-572.329 148.928 -551.874 95.3448 -520.796 51.7849C-504.042 28.3 -485.544 9.45991 -464.263 -5.80235C-440.618 -22.7594 -414.181 -34.882 -383.441 -42.8764C-356.08 -50.4593 -312.107 -51.3732 -256.29 -45.5134C-203.157 -39.9341 -141.453 -28.2493 -82.5458 -12.6122C-23.7136 3.01052 30.1835 21.8515 74.0615 42.098L74.0589 42.1036ZM-561.247 368.669C-553.415 372.284 -544.721 374.298 -535.318 374.628C-460.389 377.16 -343.429 394.05 -263.718 425.162C-223.314 439.739 -172.261 444.81 -123.658 439.072C-76.1709 433.469 -38.0053 418.67 -18.9411 398.469C-7.96084 386.795 6.37902 373.093 22.9759 357.229C64.7723 317.288 122.01 262.579 177.958 190.081C196.349 168.461 198.049 145.591 183.034 122.069C167.074 97.0637 133.102 71.9507 82.0607 47.4261C36.7902 25.6882 -20.25 5.38266 -82.9091 -11.2468C-141.744 -26.8639 -203.37 -38.5399 -256.438 -44.1102C-312.084 -49.953 -355.873 -49.0561 -383.076 -41.5169C-413.656 -33.572 -439.94 -21.5154 -463.44 -4.66296C-484.597 10.5064 -502.984 29.2402 -519.65 52.5944C-550.627 96.0094 -571.038 149.497 -590.922 205.075C-610.726 259.561 -609.544 313.392 -587.827 345.572C-580.771 356.029 -571.787 363.79 -561.247 368.655L-561.247 368.669Z" fill="#343434" fill-opacity="0.03"/>
<path d="M51.0681 65.5922L51.3897 65.7407C96.6402 86.6617 126.862 108.23 141.214 129.837C154.507 149.84 153.618 169.354 138.573 187.83C92.7574 253.561 37.77 309.268 -2.37968 349.941C-14.9534 362.679 -25.813 373.676 -34.847 383.387C-53.7029 403.581 -88.9725 418.601 -131.598 424.6C-174.837 430.685 -221.49 426.742 -259.583 413.772C-294.131 400.7 -336.775 389.436 -386.349 380.269C-423.64 373.378 -464.125 367.949 -497.433 365.374C-516.914 363.836 -532.924 354.153 -543.742 337.359C-562.66 307.998 -563.679 260.115 -546.402 212.395C-529.906 165.773 -511.427 116.959 -483.133 77.5343C-468.254 56.8052 -451.852 40.1187 -432.977 26.5109C-412.062 11.4353 -388.731 0.55525 -361.659 -6.74345C-312.945 -21.0268 -205.59 -11.857 -94.5413 16.0748C-39.4205 29.9365 10.9166 47.059 51.0681 65.5922ZM-517.692 358.877C-511.468 361.75 -504.646 363.503 -497.329 364.081C-463.982 366.66 -423.438 372.096 -386.111 378.997C-336.466 388.175 -293.747 399.468 -259.145 412.557C-221.258 425.453 -174.831 429.381 -131.782 423.324C-89.4421 417.365 -54.4572 402.487 -35.7975 382.51C-26.7527 372.79 -15.8879 361.782 -3.3059 349.041C36.8143 308.402 91.753 252.742 137.531 187.062C152.203 169.037 153.065 150.043 140.125 130.566C125.904 109.163 95.8649 87.7481 50.8345 66.9286L50.5129 66.7802C10.4348 48.2808 -39.8208 31.1892 -94.8686 17.3475C-205.716 -10.5322 -312.789 -19.7026 -361.319 -5.47779C-388.25 1.78317 -411.442 12.5977 -432.232 27.5805C-450.985 41.101 -467.295 57.6928 -482.092 78.3027C-510.287 117.588 -528.722 166.306 -545.193 212.844C-562.333 260.195 -561.367 307.643 -542.662 336.667C-536.143 346.788 -527.69 354.276 -517.709 358.883L-517.692 358.877Z" fill="#343434" fill-opacity="0.03"/>
<path d="M28.066 88.7936C62.9587 104.899 86.5759 121.53 98.3239 138.28C109.493 154.209 109.432 169.807 98.1365 184.655C62.3161 245.368 6.65358 304.836 -33.994 348.264C-40.3712 355.08 -46.3933 361.514 -51.7561 367.334C-70.4817 387.602 -101.707 402.299 -139.684 408.725C-177.976 415.198 -218.904 412.48 -254.93 401.067C-279.381 392.19 -348.209 369.914 -459.477 354.707C-475.949 352.416 -489.453 343.281 -498.521 328.273C-514.339 302.102 -515.112 260.684 -500.541 220.189C-487.259 182.118 -470.954 138.549 -445.453 103.291C-418.505 66.0241 -383.969 41.8562 -339.866 29.3935C-318.052 22.5564 -283.612 20.5888 -240.288 23.6938C-199.027 26.6545 -152.751 33.9215 -106.466 44.7112C-58.6674 55.8569 -14.8642 69.8745 20.2061 85.2547C22.8871 86.4306 25.5099 87.6138 28.0716 88.7962L28.066 88.7936ZM-474.048 349.262C-469.478 351.371 -464.547 352.805 -459.319 353.535C-441.517 355.968 -405.545 361.327 -364.656 369.899C-321.724 378.894 -284.686 389.002 -254.556 399.946C-218.727 411.296 -177.999 414.003 -139.89 407.556C-102.174 401.173 -71.1856 386.606 -52.6375 366.53C-47.2748 360.71 -41.2501 354.271 -34.8703 347.448C5.74778 304.055 61.3699 244.631 97.1239 184.016L97.1638 183.959C108.134 169.564 108.196 154.425 97.3469 138.958C85.0373 121.408 58.1956 103.207 19.7199 86.3375C-15.2883 70.986 -59.0129 56.991 -106.744 45.8627C-152.968 35.0878 -199.185 27.8273 -240.385 24.8675C-283.561 21.769 -317.846 23.7262 -339.536 30.5177C-383.385 42.9058 -417.715 66.9365 -444.501 103.97C-469.908 139.1 -486.177 182.576 -499.428 220.566C-513.887 260.743 -513.151 301.767 -497.512 327.644C-491.522 337.562 -483.55 344.862 -474.054 349.245L-474.048 349.262Z" fill="#343434" fill-opacity="0.03"/>
<path d="M4.16903 111.158C28.9449 122.594 46.5708 134.706 55.5832 146.573C64.6334 158.492 65.3391 170.234 57.6823 181.484C33.1114 239.506 -38.2149 317.828 -68.6744 351.283C-106.808 393.017 -181.491 408.264 -250.283 388.359C-303.793 369.984 -370.115 355.373 -409.739 346.639C-413.944 345.711 -417.895 344.839 -421.54 344.032C-435.051 340.992 -446.068 332.341 -453.39 319.037C-466.036 296.061 -466.53 261.172 -454.684 227.975C-443.083 194.048 -429.37 158.585 -407.778 129.038C-384.738 97.5101 -355.401 76.7328 -318.077 65.5216C-280.611 52.8016 -202.204 55.8375 -118.332 73.2645C-78.0058 81.646 -40.8524 92.4983 -10.888 104.646C-5.6132 106.786 -0.58495 108.956 4.17725 111.155L4.16903 111.158ZM-430.284 339.948C-427.435 341.263 -424.439 342.277 -421.303 342.985C-417.66 343.797 -413.715 344.667 -409.507 345.589C-369.864 354.326 -303.503 368.94 -249.96 387.331C-181.566 407.121 -107.338 391.999 -69.4674 350.555C-39.0318 317.136 32.2407 238.871 56.7165 181.011L56.74 180.96L56.7691 180.912C64.1689 170.071 63.4814 158.733 54.7329 147.214C44.1025 133.218 21.2673 118.838 -11.2939 105.629C-41.1992 93.5019 -78.291 82.6643 -118.55 74.3002C-202.243 56.9148 -280.43 53.8637 -317.748 66.529C-400.627 91.4216 -430.334 160.097 -453.667 228.307C-465.416 261.234 -464.946 295.79 -452.445 318.501C-446.977 328.438 -439.417 335.712 -430.282 339.929L-430.284 339.948Z" fill="#343434" fill-opacity="0.03"/>
<path d="M-19.8689 132.662C-4.72463 139.652 6.58438 147.062 13.0565 154.512C20.0221 162.539 21.4312 170.534 17.2433 178.272C14.9353 196.084 1.77823 222.201 -21.8556 255.905C-39.0765 280.461 -62.3039 309.37 -85.5906 335.219C-123.022 376.648 -182.85 391.756 -245.635 375.637C-267.11 368.839 -289.654 362.176 -311.458 355.733C-339.657 347.399 -366.288 339.521 -383.603 333.349C-398.153 328.098 -408.654 314.709 -413.172 295.656C-417.456 277.594 -415.868 255.767 -408.83 235.758C-393.501 189.603 -380.081 168.241 -370.105 154.783C-350.99 129 -326.841 111.619 -296.291 101.648C-264.269 89.6453 -200.622 89.6328 -130.2 101.632C-85.2158 109.295 -46.5775 120.327 -19.8663 132.656L-19.8689 132.662ZM-386.342 331.188C-385.344 331.649 -384.324 332.065 -383.281 332.444C-365.991 338.611 -339.377 346.481 -311.189 354.81C-289.38 361.256 -266.833 367.926 -245.374 374.717C-182.968 390.737 -123.493 375.739 -86.3085 334.58C-63.0461 308.754 -39.8426 279.882 -22.6429 255.357C0.943154 221.727 14.0451 195.715 16.2997 178.063L16.3136 177.973L16.3501 177.894C20.3826 170.522 19.0343 162.87 12.3338 155.144C-5.40203 134.699 -60.082 114.559 -130.359 102.585C-200.622 90.6116 -264.081 90.6015 -295.97 102.555C-326.342 112.465 -350.33 129.736 -369.328 155.354C-388.24 180.861 -399.885 211.885 -407.911 236.066C-414.902 255.912 -416.476 277.546 -412.233 295.432C-408.116 312.788 -398.979 325.349 -386.34 331.183L-386.342 331.188Z" fill="#343434" fill-opacity="0.03"/>
<path d="M-44.271 152.475C-38.0079 155.366 -32.984 158.376 -29.4211 161.438C-24.2149 165.922 -22.1209 170.475 -23.2066 174.977C-15.8996 188.952 -30.3385 218.276 -43.7633 240.45C-58.9069 265.459 -80.8669 294.884 -102.512 319.178C-121.165 340.061 -141.258 353.77 -163.947 361.094C-187.117 368.571 -212.315 369.171 -240.991 362.937C-283.345 351.176 -324.432 335.367 -345.683 322.656C-356.007 316.419 -363.348 304.474 -366.357 289.033C-369.169 274.587 -367.937 258.01 -362.969 243.554C-350.749 204.965 -329.654 158.077 -274.507 137.79C-248.141 126.579 -198.845 123.522 -142.671 129.629C-101.616 134.089 -65.7065 142.581 -44.2653 152.478L-44.271 152.475ZM-326.272 331.746C-303.792 342.122 -272.652 353.265 -240.795 362.111C-212.295 368.311 -187.241 367.713 -164.217 360.285C-141.674 353.01 -121.701 339.382 -103.155 318.614C-62.6938 273.218 -11.4015 198.721 -24.0381 175.236L-24.115 175.092L-24.0755 174.932C-22.9863 170.719 -24.9758 166.399 -29.9819 162.089C-45.6172 148.63 -89.8901 136.223 -142.775 130.478C-198.813 124.386 -247.951 127.413 -274.209 138.584C-329.027 158.75 -350.015 205.421 -362.177 243.824L-362.182 243.836C-367.102 258.156 -368.324 274.58 -365.536 288.885C-362.576 304.092 -355.372 315.829 -345.257 321.942C-340.038 325.063 -333.617 328.368 -326.277 331.757L-326.272 331.746Z" fill="#343434" fill-opacity="0.03"/>
<path d="M588.603 1387.61C561.663 1387.61 535.663 1386.99 510.743 1385.74C373.923 1378.9 273.853 1353.92 213.313 1311.49C151.373 1268.09 132.703 1207.19 157.813 1130.47C234.053 897.569 308.863 753.219 358.363 657.709C380.643 614.719 398.243 580.759 407.813 554.069C423.733 509.649 492.183 450.679 586.443 400.159C687.883 345.799 796.503 312.879 884.463 309.849C1005.77 305.669 1137.57 270.739 1226.77 242.169C1330.68 208.889 1438.36 164.259 1514.81 122.779C1564.16 95.9991 1614.7 95.089 1660.95 120.139C1741.03 163.519 1797.94 278.959 1809.47 421.399C1814.93 488.909 1820.58 558.729 1821.85 626.099C1823.26 700.589 1818.98 763.989 1808.78 819.919C1796.59 886.699 1775.87 944.879 1745.44 997.769C1711.46 1056.82 1666.21 1108.04 1607.1 1154.36C1506.15 1233.47 1227.37 1318.52 929.173 1361.19C807.183 1378.64 691.073 1387.6 588.603 1387.6V1387.61ZM1591.57 105.029C1566.66 105.029 1541.3 111.829 1516.24 125.429C1439.63 166.999 1331.76 211.709 1227.69 245.039C1138.31 273.659 1006.22 308.669 884.563 312.859C797.053 315.879 688.903 348.659 587.853 402.819C494.223 452.999 426.313 511.349 410.633 555.099C400.993 581.989 383.353 616.019 361.023 659.109C311.563 754.539 236.833 898.749 160.663 1131.42C136.013 1206.73 154.303 1266.49 215.033 1309.05C275.103 1351.14 374.643 1375.94 510.893 1382.76C630.383 1388.74 774.873 1380.26 928.743 1358.24C1226.48 1315.64 1504.67 1230.84 1605.25 1152.02C1664.05 1105.94 1709.05 1055.01 1742.84 996.289C1773.1 943.699 1793.71 885.839 1805.83 819.399C1828.58 694.749 1817.34 555.919 1806.48 421.659C1795.04 280.219 1738.73 165.699 1659.52 122.799C1637.65 110.949 1614.8 105.039 1591.57 105.039V105.029Z" fill="#343434" fill-opacity="0.03"/>
<path d="M605.283 1337.11C583.973 1337.11 563.333 1336.68 543.433 1335.81C417.933 1330.32 326.143 1308.11 270.593 1269.79C214.443 1231.05 197.103 1176.54 219.053 1107.77C283.823 899.569 351.463 761.399 396.213 669.979C417.223 627.059 433.813 593.159 443.343 566.129C458.763 522.439 522.223 465.649 608.963 417.909C701.843 366.789 802.903 335.319 886.233 331.559C998.133 327.159 1119.52 295.709 1201.64 270.109C1298.12 240.029 1394.67 201.349 1466.54 163.969C1511.9 140.389 1558.28 140.319 1600.68 163.769C1674.28 204.469 1726.6 310.679 1737.21 440.969C1747.34 563.879 1757.82 690.979 1736.36 807.719C1725.06 869.209 1705.94 922.839 1677.91 971.669C1646.65 1026.14 1605.09 1073.44 1550.89 1116.28C1458.07 1190.13 1201.71 1270.21 927.483 1311.03C811.773 1328.25 701.743 1337.12 605.273 1337.12L605.283 1337.11ZM1534.92 149.069C1512.73 149.069 1490.17 154.869 1467.85 166.469C1395.84 203.919 1299.12 242.679 1202.49 272.799C1120.2 298.449 998.563 329.959 886.363 334.379C803.453 338.119 702.843 369.459 610.333 420.379C524.173 467.799 461.213 524.009 446.013 567.069C436.433 594.259 419.803 628.219 398.763 671.219C354.043 762.569 286.473 900.609 221.763 1108.62C200.233 1176.08 217.203 1229.52 272.213 1267.47C327.313 1305.48 418.613 1327.52 543.573 1332.99C653.383 1337.8 786.003 1329.23 927.093 1308.23C1200.88 1267.48 1456.68 1187.64 1549.16 1114.06C1603.09 1071.45 1644.41 1024.41 1675.49 970.259C1703.36 921.709 1722.37 868.379 1733.61 807.199C1755 690.819 1744.54 563.909 1734.42 441.179C1723.88 311.819 1672.12 206.469 1599.33 166.219C1578.64 154.779 1556.96 149.059 1534.92 149.059V149.069Z" fill="#343434" fill-opacity="0.03"/>
<path d="M622.144 1286.71C606.364 1286.71 591.014 1286.44 576.104 1285.9C461.924 1281.77 378.404 1262.32 327.864 1228.11C277.504 1194.03 261.504 1145.9 280.314 1085.06C334.044 900.219 392.374 773.218 434.964 680.498C454.294 638.418 469.554 605.178 478.904 578.168C494.054 534.548 551.104 481.268 631.514 435.638C715.864 387.768 809.364 357.748 888.034 353.258C1073.79 344.878 1306.91 260.088 1418.29 205.148C1459.66 184.768 1501.9 185.538 1540.46 207.388C1607.57 245.408 1655.28 342.398 1664.98 460.508C1673.93 566.708 1684.06 687.078 1663.97 795.498C1653.55 851.698 1636.04 900.779 1610.42 945.549C1581.87 995.439 1544.02 1038.82 1494.71 1078.18C1452.21 1112.59 1373.9 1148.52 1268.26 1182.07C1166.79 1214.3 1045.16 1242.28 925.804 1260.87C816.434 1277.9 712.514 1286.71 622.154 1286.71H622.144ZM1478.21 193.059C1458.76 193.059 1439.01 197.868 1419.45 207.508C1307.88 262.548 1074.31 347.488 888.164 355.888C809.894 360.358 716.814 390.259 632.804 437.929C552.944 483.249 496.334 535.998 481.384 579.028C471.994 606.158 456.704 639.449 437.344 681.599C394.794 774.249 336.514 901.149 282.824 1085.82C264.394 1145.44 280.044 1192.57 329.334 1225.93C379.464 1259.86 462.514 1279.15 576.194 1283.26C676.324 1286.88 797.084 1278.24 925.384 1258.26C1044.62 1239.69 1166.1 1211.74 1267.45 1179.55C1372.77 1146.1 1450.78 1110.34 1493.04 1076.12C1542.1 1036.97 1579.74 993.828 1608.11 944.238C1633.58 899.728 1651 850.919 1661.36 795.018C1681.39 686.948 1671.27 566.758 1662.33 460.728C1652.7 343.478 1605.5 247.279 1539.14 209.679C1519.59 198.599 1499.07 193.059 1478.2 193.059H1478.21Z" fill="#343434" fill-opacity="0.03"/>
<path d="M639.224 1236.45C628.834 1236.45 618.674 1236.32 608.714 1236.05C505.854 1233.27 430.614 1216.6 385.074 1186.5C340.524 1157.05 325.884 1115.29 341.554 1062.38C384.684 899.18 436.834 777.17 474.914 688.09C491.324 649.7 505.494 616.55 514.444 590.23C529.104 547.32 581.294 496.16 654.034 453.39C729.894 408.79 815.834 380.2 889.814 374.97C963.434 371.14 1053.88 354.2 1151.41 325.98C1229.69 303.33 1309.37 274.3 1370.03 246.34C1407.41 229.14 1445.53 230.76 1480.26 251.04C1540.85 286.41 1583.94 374.17 1592.72 480.08C1602.33 591.24 1608.87 690.79 1591.55 783.31C1582.02 834.22 1566.1 878.76 1542.89 919.47C1517.06 964.77 1482.91 1004.24 1438.49 1040.12C1399.81 1072.09 1328.85 1105.54 1233.28 1136.85C1141.85 1166.8 1032.03 1193.06 924.044 1210.79C821.074 1227.69 723.344 1236.48 639.204 1236.48L639.224 1236.45ZM1421.43 236.99C1404.74 236.99 1387.83 240.84 1371.05 248.56C1310.29 276.57 1230.48 305.65 1152.09 328.33C1054.38 356.6 963.744 373.58 889.964 377.41C816.374 382.62 730.824 411.08 655.284 455.5C583.034 497.98 531.244 548.65 516.774 591.02C507.794 617.43 493.604 650.62 477.174 689.05C439.124 778.06 387.014 899.97 343.924 1063.04C328.584 1114.83 342.884 1155.67 386.434 1184.45C431.594 1214.3 506.404 1230.83 608.794 1233.6C699.264 1236.03 808.144 1227.31 923.674 1208.34C1031.54 1190.63 1141.23 1164.41 1232.54 1134.49C1327.82 1103.28 1398.5 1069.98 1436.96 1038.19C1481.15 1002.5 1515.1 963.26 1540.78 918.23C1563.85 877.76 1579.68 833.47 1589.16 782.84C1606.42 690.63 1599.89 591.26 1590.3 480.27C1581.58 375.14 1538.95 288.11 1479.04 253.14C1460.61 242.38 1441.19 236.98 1421.45 236.98L1421.43 236.99Z" fill="#343434" fill-opacity="0.03"/>
<path d="M656.583 1186.37C651.413 1186.37 646.314 1186.33 641.264 1186.25C549.724 1184.83 482.754 1170.93 442.214 1144.93C403.484 1120.09 390.214 1084.68 402.794 1039.67C435.664 895.909 482.433 777.289 516.583 690.679C530.123 656.339 541.824 626.679 549.974 602.269C564.374 559.399 610.513 511.599 676.553 471.119C743.983 429.789 822.354 402.649 891.584 396.669C1028.79 388.379 1210.75 334.269 1321.76 287.509C1355.19 273.469 1389.2 275.949 1420.11 294.679C1474.14 327.419 1512.6 405.939 1520.47 499.609C1528.92 594.389 1535.17 686.469 1519.14 771.069C1510.5 816.679 1496.18 856.679 1475.38 893.329C1452.27 934.049 1421.82 969.589 1382.3 1002C1347.44 1031.53 1283.81 1062.52 1198.31 1091.6C1116.92 1119.28 1018.89 1143.82 922.284 1160.7C825.794 1177.55 734.344 1186.37 656.583 1186.38V1186.37ZM1364.54 280.819C1350.66 280.819 1336.6 283.739 1322.64 289.599C1211.46 336.429 1029.19 390.629 891.754 398.929C822.893 404.879 744.883 431.899 677.743 473.059C612.143 513.269 566.364 560.629 552.134 602.999C543.964 627.459 532.254 657.149 518.704 691.519C484.574 778.059 437.843 896.589 404.993 1040.24C392.703 1084.23 405.644 1118.79 443.444 1143.03C483.624 1168.8 550.193 1182.58 641.303 1183.99C722.104 1185.22 819.133 1176.42 921.893 1158.46C1018.38 1141.6 1116.29 1117.1 1197.58 1089.45C1282.82 1060.46 1346.19 1029.62 1380.85 1000.26C1420.17 968.029 1450.44 932.689 1473.41 892.219C1494.09 855.789 1508.32 816.019 1516.92 770.659C1532.9 686.339 1526.65 594.429 1518.22 499.819C1510.41 406.859 1472.38 329.009 1418.95 296.639C1401.59 286.119 1383.23 280.839 1364.55 280.839L1364.54 280.819Z" fill="#343434" fill-opacity="0.03"/>
<path d="M674.333 1136.55H673.763C593.543 1136.5 534.843 1125.37 499.303 1103.48C466.393 1083.22 454.533 1054.11 464.053 1016.97C486.663 890.038 529.433 771.568 560.663 685.068C570.443 657.978 578.893 634.588 585.543 614.308C599.473 572.088 640.873 526.358 699.103 488.848C758.173 450.798 828.993 425.098 893.393 418.358C952.683 414.158 1022.58 401.858 1101.19 381.818C1160.32 366.738 1223.13 347.368 1273.53 328.668C1303.03 317.778 1332.95 321.128 1360.08 338.368C1407.52 368.508 1441.3 437.778 1448.24 519.148C1455.58 598.388 1461.5 682.168 1446.75 758.848C1438.99 799.168 1426.28 834.608 1407.88 867.218C1387.49 903.348 1360.74 934.978 1326.11 963.898C1264.57 1017.62 1101.54 1076.62 920.463 1110.7C830.583 1127.62 745.493 1136.55 674.333 1136.55ZM1307.51 324.498C1296.48 324.498 1285.33 326.538 1274.25 330.628C1223.79 349.348 1160.89 368.748 1101.7 383.838C1022.98 403.908 952.953 416.218 893.573 420.428C829.523 427.138 759.043 452.708 700.233 490.588C642.393 527.848 601.313 573.178 587.523 614.948C580.863 635.248 572.413 658.658 562.623 685.758C531.413 772.188 488.683 890.558 466.093 1017.39C456.813 1053.62 468.363 1081.95 500.403 1101.68C535.613 1123.36 593.943 1134.39 673.773 1134.44H674.343C745.373 1134.44 830.323 1125.52 920.083 1108.62C1100.83 1074.6 1263.45 1015.79 1324.76 962.278C1359.21 933.508 1385.8 902.068 1406.07 866.158C1424.35 833.758 1436.99 798.518 1444.71 758.428C1459.41 682.018 1453.49 598.408 1446.17 519.308C1439.28 438.568 1405.87 369.898 1358.97 340.108C1342.62 329.718 1325.22 324.478 1307.53 324.478L1307.51 324.498Z" fill="#343434" fill-opacity="0.03"/>
<path d="M692.293 1087.14C630.453 1087.14 584.733 1078.77 556.273 1062.22C529.213 1046.48 518.783 1023.65 525.273 994.339C536.663 881.479 577.883 757.059 607.983 666.199C612.703 651.939 617.163 638.479 621.073 626.359C634.763 584.119 670.473 541.589 721.623 506.589C773.203 471.309 834.833 447.679 895.163 440.059C936.873 436.539 1052.45 422.669 1225.27 369.849C1250.88 362.089 1276.77 366.329 1300.14 382.139C1340.9 409.709 1369.96 469.699 1375.98 538.689C1382.25 603.269 1387.81 677.919 1374.33 746.629C1360.09 819.249 1325.93 877.849 1269.9 925.799C1242.64 950.499 1193.65 976.599 1128.26 1001.28C1065.98 1024.78 993.473 1045.37 918.573 1060.82C841.223 1076.77 767.773 1085.83 706.163 1087.01C701.453 1087.1 696.823 1087.14 692.283 1087.14H692.293ZM1250.23 367.979C1242.13 367.979 1233.96 369.209 1225.83 371.669C1198.18 380.119 1142.01 396.549 1076.49 411.599C1007.7 427.409 946.773 437.619 895.373 441.949C835.373 449.529 774.043 473.039 722.713 508.159C671.913 542.919 636.463 585.099 622.903 626.939C618.993 639.059 614.533 652.529 609.813 666.799C579.733 757.589 538.543 881.919 527.183 994.589L527.163 994.699C520.843 1023.13 530.963 1045.29 557.243 1060.57C587.063 1077.91 638.553 1086.4 706.143 1085.1C767.643 1083.92 840.963 1074.88 918.203 1058.95C993.003 1043.52 1065.42 1022.96 1127.61 999.499C1192.78 974.909 1241.55 948.929 1268.66 924.379C1324.37 876.709 1358.32 818.449 1372.48 746.279C1385.91 677.819 1380.36 603.329 1374.1 538.889C1368.13 470.439 1339.39 410.999 1299.09 383.739C1283.65 373.289 1267.08 367.999 1250.25 367.999L1250.23 367.979Z" fill="#343434" fill-opacity="0.03"/>
<path d="M712.123 1038.35C668.213 1038.35 634.293 1032.54 613.123 1021.28C591.863 1009.97 582.913 993.289 586.513 971.689C583.283 870.349 634.673 707.819 656.613 638.399C684.183 551.709 783.013 479.069 896.943 461.759C987.513 452.519 1094.26 429.139 1158.04 415.179C1164.81 413.699 1171.17 412.309 1177.04 411.029C1198.83 406.359 1220.76 411.569 1240.43 426.069C1274.4 451.109 1298.65 501.749 1303.73 558.239C1309.66 615.629 1313.54 676.689 1301.92 734.419C1289.52 796.019 1260.67 846.159 1213.7 887.709C1167.54 931.559 1050.94 979.999 916.654 1011.1C852.083 1026.05 790.483 1035.25 738.513 1037.71C729.363 1038.14 720.553 1038.36 712.113 1038.36L712.123 1038.35ZM1192.57 411.099C1187.52 411.099 1182.46 411.639 1177.4 412.719C1171.53 413.989 1165.18 415.379 1158.41 416.869C1094.6 430.839 987.793 454.239 897.163 463.479C783.893 480.689 685.643 552.839 658.263 638.929C636.333 708.279 584.983 870.689 588.243 971.729V971.819L588.233 971.909C584.733 992.739 593.383 1008.84 613.933 1019.77C638.903 1033.05 681.963 1038.66 738.443 1036C790.313 1033.55 851.814 1024.37 916.273 1009.44C1050.27 978.399 1166.56 930.129 1212.54 886.459C1316.84 794.199 1313.93 673.829 1302.02 558.439C1296.98 502.409 1272.99 452.239 1239.41 427.489C1224.72 416.659 1208.77 411.129 1192.58 411.129L1192.57 411.099Z" fill="#343434" fill-opacity="0.03"/>
<path d="M732.744 990.718C705.904 990.718 684.384 987.518 669.904 980.998C654.314 973.968 646.864 963.238 647.764 949.108C639.124 921.528 640.734 874.498 652.534 809.318C661.134 761.828 675.574 703.928 692.164 650.458C718.914 564.688 796.134 502.268 898.734 483.478C934.694 478.928 972.124 473.458 1008.32 468.168C1055.14 461.328 1099.36 454.878 1128.82 452.218C1153.62 450.078 1177.99 462.558 1197.44 487.348C1215.88 510.848 1228.28 543.808 1231.49 577.788C1240.22 655.558 1235.02 695.818 1229.52 722.208C1218.98 772.768 1195.42 814.448 1157.51 849.618C1118.82 888.748 1025.84 931.688 914.864 961.648C843.974 980.788 780.084 990.728 732.744 990.728V990.718ZM1134.28 453.528C1132.51 453.528 1130.74 453.608 1128.96 453.758C1099.54 456.408 1055.35 462.858 1008.55 469.698C972.344 474.988 934.904 480.448 898.974 484.998C796.993 503.678 720.214 565.698 693.644 650.908C677.074 704.328 662.644 762.158 654.054 809.588C642.274 874.628 640.674 921.468 649.284 948.778L649.324 948.918V949.058C648.404 962.548 655.534 972.818 670.534 979.588C710.234 997.498 803.704 990.048 914.454 960.148C1025.18 930.258 1117.9 887.478 1156.43 848.508C1194.12 813.548 1217.52 772.138 1228 721.898C1238.43 671.878 1234.52 618.698 1229.94 577.958C1226.77 544.248 1214.48 511.578 1196.22 488.308C1178.5 465.728 1156.68 453.538 1134.28 453.538V453.528Z" fill="#343434" fill-opacity="0.03"/>
<path d="M755.034 945.319C743.934 945.319 734.563 944.309 727.293 942.239C716.663 939.199 710.534 933.959 709.084 926.649C688.984 911.159 690.304 858.579 694.964 817.129C700.224 770.379 712.464 712.579 727.704 662.489C740.874 619.399 760.984 585.819 789.194 559.819C818.004 533.269 854.414 515.399 900.514 505.169C970.324 493.789 1041.01 489.179 1080.63 493.419C1099.92 495.569 1118.7 508.069 1133.51 528.599C1147.36 547.809 1156.74 572.859 1159.23 597.329C1167.4 661.949 1168.2 744.679 1101.31 811.509C1070.35 845.669 1000.39 883.379 914.204 912.339C851.214 933.509 793.024 945.319 755.024 945.319H755.034ZM1046.14 493.229C1006.3 493.229 953.294 497.949 900.784 506.509C854.964 516.669 818.764 534.439 790.134 560.819C762.104 586.649 742.114 620.029 729.024 662.879C700.524 756.489 675.823 899.919 710.123 925.709L710.334 925.869L710.384 926.129C711.634 933.019 717.453 937.989 727.673 940.909C759.593 950.029 832.644 938.299 913.784 911.029C999.764 882.139 1069.51 844.579 1100.34 810.549C1166.83 744.119 1166.02 661.779 1157.89 597.469V597.449C1155.42 573.209 1146.13 548.389 1132.41 529.369C1117.83 509.149 1099.39 496.859 1080.49 494.749C1070.76 493.709 1059.15 493.209 1046.14 493.209V493.229Z" fill="#343434" fill-opacity="0.03"/>
<path d="M781.784 906.008C776.994 906.008 773.264 905.398 770.774 904.128C762.784 905.288 756.094 902.818 750.884 896.818C735.634 879.258 735.904 835.478 738.814 801.828C742.274 761.798 751.424 714.208 763.274 674.518C776.704 629.628 791.654 599.718 811.754 577.558C833.184 553.918 861.974 537.808 902.334 526.858C948.424 516.618 999.514 519.678 1032.5 534.648C1062.07 548.218 1083.44 587.098 1087.01 616.848C1096.38 678.328 1082.29 730.998 1045.15 773.378C1031.35 790.718 1009.85 808.798 981.284 827.108C956.544 842.958 927.154 858.478 896.264 871.978C847.914 893.118 803.764 905.988 781.794 905.988L781.784 906.008ZM770.974 902.908L771.144 902.998C773.524 904.268 777.144 904.868 781.814 904.868C830.174 904.868 990.784 839.768 1044.22 772.638C1081.14 730.508 1095.13 678.168 1085.81 617.038V617.018C1082.28 587.588 1061.18 549.138 1031.98 535.738C999.214 520.868 948.414 517.838 902.584 528.018C862.474 538.898 833.874 554.888 812.594 578.358C792.624 600.388 777.754 630.148 764.374 674.858C752.544 714.478 743.424 761.978 739.964 801.938C737.074 835.358 736.774 878.808 751.744 896.048C756.714 901.768 763.114 904.088 770.764 902.928L770.954 902.898L770.974 902.908Z" fill="#343434" fill-opacity="0.03"/>
<path d="M810.524 888.778C805.734 888.778 801.444 887.358 797.684 884.498C788.254 877.348 777.464 857.378 779.564 802.888C780.974 766.358 788.164 722.878 798.794 686.568C811.354 643.658 820.014 616.098 834.254 595.338C848.984 573.858 869.214 560.308 904.094 548.588C923.314 542.128 941.544 543.678 958.264 553.188C994.414 573.768 1012.25 624.848 1014.73 636.388C1019.36 657.948 1015.8 681.918 1004.14 707.638C994.104 729.778 978.074 753.268 956.484 777.478C917.464 821.228 866.744 859.748 832.294 881.208C824.184 886.258 816.904 888.788 810.524 888.788V888.778ZM926.854 545.668C919.554 545.668 912.074 546.948 904.414 549.528C869.764 561.178 849.674 574.608 835.074 595.898C820.924 616.548 812.284 644.028 799.754 686.848C780.374 753.048 768.694 861.248 798.284 883.708C806.684 890.088 817.944 888.958 831.754 880.358C866.144 858.938 916.774 820.488 955.724 776.808C977.244 752.678 993.224 729.268 1003.21 707.218C1014.78 681.698 1018.32 657.938 1013.74 636.598C1011.28 625.148 993.584 574.448 957.754 554.058C947.944 548.478 937.604 545.678 926.834 545.678L926.854 545.668Z" fill="#343434" fill-opacity="0.03"/>
</g>
<defs>
<clipPath id="clip0_7_239">
<rect width="1800" height="600" fill="white"/>
</clipPath>
</defs>
</svg>
